<?xml version="1.0" encoding="utf-8"?>
<!-- Generator: Adobe Illustrator 27.3.0, SVG Export Plug-In . SVG Version: 6.00 Build 0)  -->
<svg version="1.1" id="Layer_1" xmlns="http://www.w3.org/2000/svg" xmlns:xlink="http://www.w3.org/1999/xlink" x="0px" y="0px"
	 viewBox="0 0 987 358.9" style="enable-background:new 0 0 987 358.9;" xml:space="preserve">
<style type="text/css">
	.st0{display:none;}
	.st1{fill-rule:evenodd;clip-rule:evenodd;fill:#FFFFFF;}
	.st2{fill-rule:evenodd;clip-rule:evenodd;fill:#A880FF;}
	.st3{fill:#FFFFFF;}
	.st4{fill:#A880FF;}
</style>
<g id="Layer_2_00000176027796872948835780000013131902066752505010_">
</g>
<g id="Favourites" class="st0">
</g>
<g id="Favourites_00000172425201796301214490000002065420271349098141_" class="st0">
</g>
<g>
	<g>
		<path class="st1" d="M294.5,63.5c64,64,64,167.8,0,231.8c-64.1,64.1-168,64.1-232,0c-64-64-64-167.8,0-231.8
			C126.5-0.6,230.4-0.6,294.5,63.5L294.5,63.5z M279.9,78.1c55.9,55.9,55.9,146.8,0,202.7c-28.9,28.9-67.2,42.9-105.1,41.8
			c-75.1,0-12.3-82.3-17.7-107.3c-2.1-7.2-7.1-12.2-14.3-14.4C118,195.7,35.3,249,35.3,183.2c-1-37.9,12.9-76.2,42-105.1
			C133.2,22.1,223.9,22.1,279.9,78.1L279.9,78.1z"/>
		<path class="st2" d="M180,171.8c0,0.3-0.1,0.6-0.4,0.6c-0.3,0.1-0.6,0-0.6-0.3c-0.6-1.7-0.6-3.5,0-5.1c0.4-1.7,1.2-3.2,2.5-4.4
			c1.2-1.2,2.8-2.1,4.4-2.5c1.7-0.4,3.3-0.4,5,0c0.3,0,0.6,0.3,0.4,0.6c0,0.3-0.3,0.4-0.6,0.4c-1.5-0.4-3.2-0.4-4.6,0
			c-1.5,0.4-2.9,1.1-4,2.2c-1.1,1.2-1.8,2.5-2.2,4C179.6,168.8,179.6,170.3,180,171.8L180,171.8z"/>
		<path class="st2" d="M208.1,144.6c0.1,0.3-0.1,0.6-0.3,0.6c-0.3,0.1-0.6,0-0.7-0.3c-0.4-1.7-0.4-3.5,0-5.1c0.4-1.7,1.2-3,2.5-4.4
			c1.2-1.2,2.8-2.1,4.4-2.5c1.7-0.4,3.5-0.4,5.1,0c0.3,0.1,0.4,0.4,0.3,0.7c0,0.3-0.3,0.4-0.6,0.3c-1.5-0.4-3-0.4-4.6,0
			c-1.4,0.4-2.8,1.1-4,2.4c-1.1,1.1-1.8,2.5-2.2,3.9C207.7,141.5,207.7,143,208.1,144.6L208.1,144.6z"/>
		<path class="st2" d="M259.9,98c-46.8-2.4-77.1,28.3-99.2,50.3c-23.5,6-43.5,21.9-54.6,43.2c51-21.3,81.2,10.2,60.2,60.2
			c21.5-11.1,37.3-31,43.2-54.6C231.7,175.2,262.3,144.8,259.9,98z M197.2,178.2c-4.8,4.8-12.6,4.8-17.4,0c-4.8-4.8-4.8-12.6,0-17.4
			s12.6-4.8,17.4,0S202,173.4,197.2,178.2z M223.8,149.4c-4.2,4.2-10.9,4.2-15.2,0c-4.2-4.2-4.2-10.9,0-15.1
			c4.3-4.3,11.1-4.3,15.2,0C227.9,138.5,227.9,145.2,223.8,149.4z M217.4,129.5c-3.6-0.3-7.2,1-10,3.6c-2.4,2.5-3.6,5.5-3.6,8.7
			c-1,7.3-9,10.1-17,12.2c-15.2,4-34.6,0.4-55.8,12.7c10.1-7.2,21.6-12.3,33.9-15.4c14.4-17.3,34.3-33.9,56.4-42.8
			c6-2.4,9.6-4.2,11.8,4.3C235.3,121.7,225.4,130.3,217.4,129.5z"/>
	</g>
	<g>
		<path class="st3" d="M408.3,83.9h65.5c14.8,0,27.9,2.7,39.2,8.1c11.3,5.4,20.1,13.1,26.4,23.1c6.3,10,9.4,21.8,9.4,35.3
			c0,13.6-3.1,25.3-9.4,35.3c-6.3,10-15.1,17.7-26.4,23.1c-11.3,5.4-24.4,8.1-39.2,8.1h-65.5V83.9z M472,181.9
			c9.6,0,17.3-2.8,23.1-8.3c5.8-5.5,8.6-13.3,8.6-23.3c0-10-2.9-17.8-8.6-23.3c-5.8-5.5-13.5-8.3-23.1-8.3h-18.8v63.1H472z"/>
		<path class="st3" d="M654,193.7h-50.5l-8.9,23.2h-45.6l58.1-133h44.1l58.1,133h-46.4L654,193.7z M641.6,161.4L628.7,128
			l-12.9,33.4H641.6z"/>
		<path class="st3" d="M733.9,216.2c-10.4-2.5-19-5.8-25.7-10l14.4-32.7c6.3,3.7,13.4,6.6,21.3,8.8c7.9,2.2,15.4,3.3,22.6,3.3
			c6.2,0,10.6-0.6,13.3-1.8c2.7-1.2,4-3,4-5.4c0-2.8-1.7-4.9-5.2-6.3c-3.5-1.4-9.2-2.9-17.2-4.6c-10.3-2.2-18.8-4.5-25.7-6.9
			c-6.8-2.5-12.8-6.5-17.9-12.2c-5.1-5.6-7.6-13.3-7.6-22.9c0-8.4,2.3-16,7-22.8c4.7-6.8,11.7-12.2,21-16.1
			c9.3-3.9,20.6-5.9,33.9-5.9c9.1,0,18.1,1,26.9,2.9c8.8,2,16.6,4.8,23.3,8.6l-13.5,32.5c-13-6.6-25.4-9.9-37-9.9
			c-11.5,0-17.3,2.8-17.3,8.4c0,2.7,1.7,4.7,5.1,6c3.4,1.3,9.1,2.8,16.9,4.3c10.1,1.9,18.7,4.1,25.6,6.6c7,2.5,13,6.5,18.1,12.1
			c5.1,5.6,7.7,13.2,7.7,22.8c0,8.4-2.3,15.9-7,22.7c-4.7,6.8-11.7,12.2-21,16.1c-9.3,4-20.6,6-33.9,6
			C755.1,219.9,744.3,218.7,733.9,216.2z"/>
		<path class="st3" d="M972.4,83.9v133h-44.8v-49h-41.4v49h-44.8v-133h44.8V131h41.4V83.9H972.4z"/>
		<path class="st4" d="M433.3,248.9v40h-12.8v-40H433.3z"/>
		<path class="st4" d="M463.3,248.9l20.9,29.8h1.3l-0.3-29.8h12.4v40h-21.2L455.4,259h-1.3l0.3,29.9H442v-40H463.3z"/>
		<path class="st4" d="M551.8,248.9v10.2H534v29.8h-12.8v-29.8h-17.8v-10.2H551.8z"/>
		<path class="st4" d="M601.9,248.9v9.4h-32.3v5.8h30.7v8.8h-30.7v6.4h32.5v9.6h-44.5v-40H601.9z"/>
		<path class="st4" d="M609,248.9h29.5c13.8,0,13.8,0,16.4,1.6c3.1,1.9,4,4.5,4,11.5c0,5.9-0.6,8.2-2.8,9.8
			c-1.1,0.9-2.3,1.3-4.7,1.7c6.2,0.7,7.3,2.5,7,11.8v3.7h-12v-2.1c0-4.5-0.2-5.9-1.2-7c-0.8-1-1.7-1.1-6.8-1.1h-17.2v10.1H609V248.9
			z M638.3,268.7c6.1-0.1,6.1-0.1,7-0.7c1-0.6,1.3-1.8,1.3-4.3c0-2.7-0.5-3.8-1.7-4.4c-0.8-0.4-1-0.4-6.5-0.4h-17.2v9.8H638.3z"/>
		<path class="st4" d="M706,282.1h-26.5l-3.4,6.8h-13.9l21.2-40h19l20.9,40h-13.9L706,282.1z M694,258.2h-2.4l-7.7,15.2h17.9
			L694,258.2z"/>
		<path class="st4" d="M777.9,273.5c0.1,2.3,0.1,3.2,0.1,3.8c0,6.5-1.7,9.4-6.1,10.9c-3.2,1-7.6,1.4-16.5,1.4
			c-15.7,0-20.7-0.5-23.9-2.3c-2.6-1.5-3.8-3.7-4.3-7.8c-0.2-1.8-0.3-5.1-0.3-10.2c0-8.9,0.2-12.2,1.1-14.5
			c2.2-5.4,6.5-6.4,27.5-6.4c10.7,0,14.4,0.4,17.2,1.9c3.4,1.7,4.6,4.7,4.6,11.1v2h-12.2c-0.1-2.6-0.2-3.2-1-3.8
			c-0.9-0.8-4.4-1.1-12.1-1.1c-7.6,0-9.8,0.2-11,1.2c-1.4,1.2-1.9,3.5-1.9,9.6c0,10.3,0.2,10.4,13,10.4c13.4,0,13.6-0.1,13.6-6
			H777.9z"/>
		<path class="st4" d="M830.8,248.9v10.2H813v29.8h-12.8v-29.8h-17.8v-10.2H830.8z"/>
		<path class="st4" d="M849.4,248.9v40h-12.8v-40H849.4z"/>
		<path class="st4" d="M867.8,248.9l14.6,29.9h2.3l14.4-29.9h13.3l-19.6,40h-18.7l-19.8-40H867.8z"/>
		<path class="st4" d="M961.7,248.9v9.4h-32.3v5.8h30.7v8.8h-30.7v6.4H962v9.6h-44.5v-40H961.7z"/>
	</g>
</g>
</svg>
