<?xml version="1.0" encoding="utf-8"?>
<!-- Generator: Adobe Illustrator 26.2.1, SVG Export Plug-In . SVG Version: 6.00 Build 0)  -->
<svg version="1.1" xmlns="http://www.w3.org/2000/svg" xmlns:xlink="http://www.w3.org/1999/xlink" x="0px" y="0px"
	 viewBox="0 0 942 358.9" style="enable-background:new 0 0 942 358.9;" xml:space="preserve">
<style type="text/css">
	.st0{fill:#232323;}
	.st1{fill:#FFFFFF;}
	.st2{fill:#2C3C80;}
	.st3{fill:#335FAB;}
	.st4{fill:#171135;}
	.st5{fill:#27344C;}
	.st6{fill:#192748;}
	.st7{fill:#27323C;}
	.st8{fill:#5355A5;}
	.st9{fill:#3176BC;}
	.st10{fill:#345EAC;}
	.st11{fill:#F9AC1B;}
	.st12{display:none;}
	.st13{display:inline;}
	.st14{fill:none;stroke:#E6E7E8;stroke-width:4.7273;stroke-linecap:round;stroke-miterlimit:10;}
	.st15{fill:none;stroke:#F06167;stroke-width:4.7273;stroke-linecap:round;stroke-miterlimit:10;}
	.st16{fill:#374C99;}
	.st17{fill:#292E6B;}
	.st18{fill:#243067;}
	.st19{fill:url(#SVGID_1_);stroke:#374C99;stroke-miterlimit:10;}
	.st20{fill:none;stroke:url(#SVGID_00000039823166531869351710000012573098486685681590_);stroke-miterlimit:10;}
	.st21{fill:#FBE67E;}
	.st22{fill:#DE8B27;}
	.st23{fill:#B2D7F2;}
	.st24{fill:#265583;}
	.st25{fill:#70A0D5;stroke:#70A0D5;stroke-miterlimit:10;}
	.st26{fill:#203D66;stroke:#203D66;stroke-miterlimit:10;}
	.st27{fill:#345EAC;stroke:#231F20;stroke-miterlimit:10;}
	
		.st28{fill:url(#SVGID_00000060021852847577446810000000976099876895271088_);stroke:#FBE67E;stroke-width:1.5346;stroke-linecap:round;stroke-linejoin:round;stroke-miterlimit:10;}
	.st29{fill:url(#SVGID_00000148632077229245355280000012446584575055826060_);}
	.st30{fill:#F7D278;}
	.st31{fill:#C4932C;}
	.st32{fill:#FCC214;}
	
		.st33{fill:url(#SVGID_00000075864885903971783970000012395037480850642344_);stroke:#FCC214;stroke-width:1.5346;stroke-linecap:round;stroke-linejoin:round;stroke-miterlimit:10;}
	
		.st34{fill:none;stroke:url(#SVGID_00000051369255220656397550000002042633957066503598_);stroke-width:1.5346;stroke-linecap:round;stroke-linejoin:round;stroke-miterlimit:10;}
	
		.st35{fill:url(#SVGID_00000167371740406610910250000013668360817329622950_);stroke:#B2D7F2;stroke-width:1.5346;stroke-linecap:round;stroke-linejoin:round;stroke-miterlimit:10;}
	
		.st36{fill:none;stroke:url(#SVGID_00000067927361110641156800000008618853854548634264_);stroke-width:1.5346;stroke-linecap:round;stroke-linejoin:round;stroke-miterlimit:10;}
	.st37{fill:url(#SVGID_00000041989581426514898170000012926731311964670352_);stroke:#70A0D5;stroke-miterlimit:10;}
	
		.st38{fill:none;stroke:url(#SVGID_00000013886230860940666200000015276654072510740395_);stroke-width:1.5346;stroke-linecap:round;stroke-linejoin:round;stroke-miterlimit:10;}
	.st39{fill:#7B7FBD;}
	.st40{fill:#5356A5;}
	.st41{fill:url(#SVGID_00000123441705223056279370000000712123088518300601_);stroke:#7B7FBD;stroke-miterlimit:10;}
	
		.st42{fill:none;stroke:url(#SVGID_00000058579863354980014730000011384290331487421613_);stroke-width:1.5346;stroke-linecap:round;stroke-linejoin:round;stroke-miterlimit:10;}
	.st43{fill:url(#SVGID_00000091733656314673394880000004294173726294541204_);stroke:#374C99;stroke-miterlimit:10;}
	.st44{fill:none;stroke:url(#SVGID_00000130606503527751950920000000326479855494460045_);stroke-miterlimit:10;}
	.st45{fill:#4F67B0;}
	.st46{fill:url(#SVGID_00000115472832168932166350000008275957621688831399_);stroke:#4F67B0;stroke-miterlimit:10;}
	.st47{fill:none;stroke:url(#SVGID_00000120551602125257927100000013946395672006217880_);stroke-miterlimit:10;}
	.st48{fill:url(#SVGID_00000121271603843954346890000017489231953517452426_);stroke:#4F67B0;stroke-miterlimit:10;}
	.st49{fill:none;stroke:url(#SVGID_00000072971446654293878530000016795361963567726761_);stroke-miterlimit:10;}
	.st50{fill:#ED223A;}
	.st51{fill:#E71C4D;}
	.st52{fill:#44AAD1;}
	.st53{fill:#41AAD1;}
	.st54{fill:#FFFFFF;stroke:#232323;stroke-miterlimit:10;}
	.st55{fill:#34BABB;}
	.st56{fill:#34BABB;stroke:#27323C;stroke-miterlimit:10;}
	.st57{fill:#F15959;}
	.st58{fill:#70A0D5;}
	.st59{fill:#203D66;}
	.st60{fill:#333333;}
	.st61{fill:#FFC10D;stroke:#333333;stroke-miterlimit:10;}
	.st62{fill:#FFC10D;}
	.st63{fill:#FFFFFF;stroke:#333333;stroke-miterlimit:10;}
	.st64{fill:#EB2087;}
	.st65{fill:#1C1850;}
	.st66{fill:none;stroke:#EB2087;stroke-width:15.2364;stroke-miterlimit:10;}
	.st67{fill:#EB2087;stroke:#1C1850;stroke-width:14.5108;stroke-linecap:round;stroke-linejoin:round;stroke-miterlimit:10;}
	.st68{fill:#FFFFFF;stroke:#1C1850;stroke-width:13.4042;stroke-linecap:round;stroke-linejoin:round;stroke-miterlimit:10;}
	.st69{fill:#EC1C4E;}
	.st70{fill:#0C1326;}
	.st71{fill-rule:evenodd;clip-rule:evenodd;fill:#0C1326;}
	.st72{fill-rule:evenodd;clip-rule:evenodd;fill:#EC1C4E;}
	.st73{fill-rule:evenodd;clip-rule:evenodd;fill:#FFFFFF;}
	.st74{fill-rule:evenodd;clip-rule:evenodd;fill:#5100FF;}
</style>
<g id="Layer_2">
</g>
<g id="Layer_1">
	<g>
		<g>
			<path class="st73" d="M293.2,63.5c64,64,64,167.8,0,231.8c-64.1,64.1-168,64.1-232,0c-64-64-64-167.8,0-231.8
				C125.2-0.6,229.1-0.6,293.2,63.5L293.2,63.5z M278.5,78.1c55.9,55.9,55.9,146.8,0,202.7c-28.9,28.9-67.2,42.9-105.1,41.8
				c-75.1,0-12.3-82.3-17.7-107.3c-2.1-7.2-7.1-12.2-14.3-14.4c-24.8-5.3-107.5,48.1-107.5-17.7c-1-37.9,12.9-76.2,42-105.1
				C131.8,22.1,222.6,22.1,278.5,78.1L278.5,78.1z"/>
			<path class="st73" d="M178.7,171.8c0,0.3-0.1,0.6-0.4,0.6c-0.3,0.1-0.6,0-0.6-0.3c-0.6-1.7-0.6-3.5,0-5.1
				c0.4-1.7,1.2-3.2,2.5-4.4c1.2-1.2,2.8-2.1,4.4-2.5c1.7-0.4,3.3-0.4,5,0c0.3,0,0.6,0.3,0.4,0.6c0,0.3-0.3,0.4-0.6,0.4
				c-1.5-0.4-3.2-0.4-4.6,0c-1.5,0.4-2.9,1.1-4,2.2c-1.1,1.2-1.8,2.5-2.2,4C178.2,168.8,178.2,170.3,178.7,171.8L178.7,171.8z"/>
			<path class="st73" d="M206.8,144.5c0.1,0.3-0.1,0.6-0.3,0.6c-0.3,0.1-0.6,0-0.7-0.3c-0.4-1.7-0.4-3.5,0-5.1
				c0.4-1.7,1.2-3,2.5-4.4c1.2-1.2,2.8-2.1,4.4-2.5c1.7-0.4,3.5-0.4,5.1,0c0.3,0.1,0.4,0.4,0.3,0.7c0,0.3-0.3,0.4-0.6,0.3
				c-1.5-0.4-3-0.4-4.6,0c-1.4,0.4-2.8,1.1-4,2.4c-1.1,1.1-1.8,2.5-2.2,3.9C206.4,141.5,206.4,143,206.8,144.5L206.8,144.5z"/>
			<path class="st73" d="M258.6,98c-46.8-2.4-77.1,28.3-99.2,50.3c-23.5,6-43.5,21.9-54.6,43.2c51-21.3,81.2,10.2,60.2,60.2
				c21.5-11.1,37.3-31,43.2-54.6C230.3,175.1,260.9,144.8,258.6,98z M195.8,178.2c-4.8,4.8-12.6,4.8-17.4,0
				c-4.8-4.8-4.8-12.6,0-17.4s12.6-4.8,17.4,0S200.7,173.3,195.8,178.2z M222.4,149.4c-4.2,4.2-10.9,4.2-15.2,0
				c-4.2-4.2-4.2-10.9,0-15.1c4.3-4.3,11.1-4.3,15.2,0C226.6,138.4,226.6,145.2,222.4,149.4z M216.1,129.4c-3.6-0.3-7.2,1-10,3.6
				c-2.4,2.5-3.6,5.5-3.6,8.7c-1,7.3-9,10.1-17,12.2c-15.2,4-34.6,0.4-55.8,12.7c10.1-7.2,21.6-12.3,33.9-15.4
				c14.4-17.3,34.3-33.9,56.4-42.8c6-2.4,9.6-4.2,11.8,4.3C233.9,121.7,224.1,130.3,216.1,129.4z"/>
		</g>
		<g>
			<path class="st1" d="M418.6,83.9h62.9c14.6,0,27.5,2.7,38.8,8.2c11.3,5.4,20,13.2,26.2,23.2c6.2,10,9.3,21.7,9.3,35.1
				c0,13.4-3.1,25.1-9.3,35.2c-6.2,10-14.9,17.7-26.2,23.2c-11.3,5.4-24.2,8.2-38.8,8.2h-62.9V83.9z M479.9,186.8
				c11.4,0,20.5-3.2,27.5-9.7c6.9-6.5,10.4-15.4,10.4-26.8c0-11.4-3.5-20.3-10.4-26.8c-6.9-6.5-16.1-9.7-27.5-9.7h-23.8v73H479.9z"
				/>
			<path class="st1" d="M656.8,123.9c9,7.8,13.5,19.7,13.5,35.8v57.2h-33.6v-13.3c-5.2,10-15.3,15-30.4,15c-8,0-14.9-1.4-20.7-4.2
				c-5.8-2.8-10.2-6.6-13.2-11.3c-3-4.8-4.5-10.2-4.5-16.2c0-9.8,3.7-17.3,11.2-22.7c7.5-5.4,19-8.1,34.6-8.1h20.5
				c-0.6-10.9-7.9-16.3-21.8-16.3c-4.9,0-9.9,0.8-15,2.4c-5.1,1.6-9.4,3.8-12.9,6.6l-12.2-24.5c5.7-3.8,12.6-6.7,20.8-8.8
				s16.4-3.1,24.6-3.1C634.8,112.2,647.8,116.1,656.8,123.9z M627.4,192.7c3.2-2,5.4-5,6.8-8.9v-8.9h-15.6
				c-10.5,0-15.8,3.5-15.8,10.4c0,3.2,1.2,5.7,3.6,7.6c2.4,1.9,5.7,2.8,9.9,2.8C620.5,195.8,624.2,194.8,627.4,192.7z"/>
			<path class="st1" d="M705.1,215.6c-8.4-2-15.1-4.5-20.1-7.7l10.8-24.7c4.7,2.9,10.3,5.2,16.7,6.9s12.9,2.6,19.2,2.6
				c5.8,0,10-0.6,12.4-1.8c2.5-1.2,3.7-2.9,3.7-5.2s-1.5-3.9-4.5-4.8c-3-1-7.7-1.9-14.2-2.8c-8.2-1-15.2-2.3-21-4
				c-5.8-1.6-10.7-4.7-14.9-9.1c-4.2-4.4-6.3-10.6-6.3-18.6c0-6.6,2-12.4,5.9-17.6c3.9-5.1,9.7-9.2,17.2-12.2
				c7.5-3,16.6-4.5,27.1-4.5c7.5,0,14.9,0.8,22.2,2.3c7.3,1.5,13.5,3.7,18.4,6.5L767,145.4c-9.1-5.1-19-7.6-29.6-7.6
				c-5.7,0-9.9,0.7-12.5,2s-4,3.1-4,5.2c0,2.4,1.5,4.1,4.4,5c2.9,0.9,7.7,1.9,14.4,2.9c8.5,1.3,15.5,2.7,21.1,4.4
				c5.6,1.6,10.4,4.7,14.5,9c4.1,4.4,6.2,10.5,6.2,18.3c0,6.5-2,12.3-5.9,17.4c-3.9,5.1-9.7,9.2-17.4,12.1
				c-7.7,2.9-16.9,4.4-27.6,4.4C721.9,218.6,713.5,217.6,705.1,215.6z"/>
			<path class="st1" d="M895,123.6c7.8,7.6,11.7,19.1,11.7,34.4v58.9h-36.1v-53c0-14.1-5.6-21.1-16.9-21.1c-6.2,0-11.2,2-14.9,6.1
				c-3.7,4.1-5.6,10.1-5.6,18.2v49.8h-36.1v-141h36.1v47.5c3.9-3.7,8.5-6.5,13.9-8.4c5.3-1.9,11-2.8,17.1-2.8
				C876.9,112.2,887.2,116,895,123.6z"/>
			<path class="st1" d="M417.8,243.7h7.3v39.2h-7.3V243.7z"/>
			<path class="st1" d="M481.7,243.7v39.2h-6l-21.6-26.5v26.5h-7.2v-39.2h6l21.6,26.5v-26.5H481.7z"/>
			<path class="st1" d="M511.4,249.8h-13v-6.2h33.3v6.2h-13v33h-7.3V249.8z"/>
			<path class="st1" d="M577.8,276.8v6.1h-29.4v-39.2H577v6.1h-21.3V260h18.9v6h-18.9v10.8H577.8z"/>
			<path class="st1" d="M622.7,282.9l-8-11.5c-0.3,0-0.8,0.1-1.5,0.1h-8.8v11.4h-7.3v-39.2h16.1c3.4,0,6.4,0.6,8.9,1.7
				c2.5,1.1,4.5,2.7,5.8,4.8c1.3,2.1,2,4.6,2,7.4c0,2.9-0.7,5.5-2.2,7.6c-1.4,2.1-3.5,3.7-6.2,4.8l9,12.9H622.7z M620.1,251.8
				c-1.6-1.3-4.1-2-7.2-2h-8.5v15.6h8.5c3.2,0,5.6-0.7,7.2-2c1.6-1.4,2.5-3.3,2.5-5.8C622.6,255.1,621.7,253.2,620.1,251.8z"/>
			<path class="st1" d="M674.6,273.8H655l-3.9,9.1h-7.5l17.6-39.2h7.2l17.7,39.2h-7.6L674.6,273.8z M672.2,268.1l-7.4-17.1
				l-7.3,17.1H672.2z"/>
			<path class="st1" d="M709.2,280.8c-3.2-1.7-5.7-4.1-7.5-7.2c-1.8-3.1-2.7-6.5-2.7-10.4c0-3.8,0.9-7.3,2.7-10.4
				c1.8-3.1,4.3-5.5,7.5-7.2c3.2-1.7,6.8-2.6,10.7-2.6c3.2,0,6.1,0.6,8.8,1.7c2.7,1.1,4.9,2.7,6.7,4.9l-4.7,4.4
				c-2.8-3.1-6.3-4.6-10.5-4.6c-2.7,0-5.1,0.6-7.2,1.8s-3.8,2.8-5,4.9c-1.2,2.1-1.8,4.5-1.8,7.1c0,2.7,0.6,5,1.8,7.1
				c1.2,2.1,2.9,3.7,5,4.9s4.5,1.8,7.2,1.8c4.1,0,7.6-1.5,10.5-4.6l4.7,4.5c-1.8,2.1-4.1,3.8-6.7,4.9c-2.7,1.1-5.6,1.7-8.8,1.7
				C716,283.4,712.4,282.6,709.2,280.8z"/>
			<path class="st1" d="M761.2,249.8h-13v-6.2h33.3v6.2h-13v33h-7.3V249.8z"/>
			<path class="st1" d="M798.2,243.7h7.3v39.2h-7.3V243.7z"/>
			<path class="st1" d="M862.8,243.7l-17.1,39.2h-7.2l-17.1-39.2h7.9l13,30.2l13.2-30.2H862.8z"/>
			<path class="st1" d="M907.5,276.8v6.1h-29.4v-39.2h28.6v6.1h-21.3V260h18.9v6h-18.9v10.8H907.5z"/>
		</g>
	</g>
</g>
<g id="Favourites" class="st12">
</g>
</svg>
