<?xml version="1.0" encoding="utf-8"?>
<!-- Generator: Adobe Illustrator 27.3.0, SVG Export Plug-In . SVG Version: 6.00 Build 0)  -->
<svg version="1.1" id="Layer_1" xmlns="http://www.w3.org/2000/svg" xmlns:xlink="http://www.w3.org/1999/xlink" x="0px" y="0px"
	 viewBox="0 0 48 48" style="enable-background:new 0 0 48 48;" xml:space="preserve">
<path d="M38.8,23.8c0,8.2-6.6,14.8-14.8,14.8S9.2,31.9,9.2,23.8S15.9,9,24,9c0.5,0,1,0,1.4,0.1c-4.2,4.2-3.5,9.1-1,12.4
	c1.5,2,7.1,6.7,14.3,0.8C38.8,22.8,38.8,23.3,38.8,23.8z"/>
<path d="M23.3,24.4C23.3,24.4,23.3,24.4,23.3,24.4c-0.1,0-0.1,0-0.1,0l-0.2,0.2c0,0,0,0,0,0.1c0,0,0,0,0,0.1c0,0,0,0,0.1,0
	s0,0,0.1,0l0.2-0.2C23.4,24.5,23.4,24.5,23.3,24.4C23.4,24.5,23.4,24.5,23.3,24.4z M24.8,23C24.8,23,24.8,22.9,24.8,23
	c-0.1,0-0.1,0-0.1,0l-0.2,0.2c0,0,0,0,0,0.1c0,0,0,0,0,0.1c0,0,0,0,0.1,0s0,0,0.1,0l0.2-0.2C24.8,23.1,24.8,23.1,24.8,23
	C24.8,23,24.8,23,24.8,23z M24.8,24.6l-0.2-0.2c0,0,0,0-0.1,0c0,0,0,0-0.1,0c0,0,0,0,0,0.1c0,0,0,0,0,0.1l0.2,0.2c0,0,0,0,0.1,0
	c0,0,0,0,0.1,0C24.8,24.7,24.8,24.7,24.8,24.6C24.8,24.6,24.8,24.6,24.8,24.6z M23.3,23.1L23.2,23c0,0,0,0-0.1,0c0,0,0,0-0.1,0
	c0,0,0,0,0,0.1c0,0,0,0,0,0.1l0.2,0.2c0,0,0,0,0.1,0c0,0,0,0,0.1,0C23.4,23.2,23.4,23.2,23.3,23.1C23.4,23.2,23.4,23.2,23.3,23.1z
	 M24,24.7C24,24.7,24,24.7,24,24.7c-0.1,0-0.1,0-0.1,0c0,0,0,0,0,0.1v0.3c0,0,0,0,0,0.1c0,0,0,0,0.1,0s0,0,0.1,0c0,0,0,0,0-0.1
	L24,24.7C24,24.7,24,24.7,24,24.7z M24,22.6C24,22.6,24,22.6,24,22.6c-0.1,0-0.1,0-0.1,0c0,0,0,0,0,0.1v0.3c0,0,0,0,0,0.1
	c0,0,0,0,0.1,0s0,0,0.1,0c0,0,0,0,0-0.1L24,22.6C24,22.6,24,22.6,24,22.6z M25.2,23.8C25.2,23.8,25.2,23.8,25.2,23.8l-0.4,0
	c0,0,0,0-0.1,0c0,0,0,0,0,0.1c0,0,0,0,0,0.1c0,0,0,0,0.1,0h0.3c0,0,0,0,0.1,0C25.2,23.9,25.2,23.9,25.2,23.8
	C25.2,23.8,25.2,23.8,25.2,23.8z M23.1,23.8C23.1,23.8,23,23.8,23.1,23.8l-0.4,0c0,0,0,0-0.1,0c0,0,0,0,0,0.1c0,0,0,0,0,0.1
	c0,0,0,0,0.1,0H23c0,0,0,0,0.1,0C23.1,23.9,23.1,23.9,23.1,23.8C23.1,23.8,23.1,23.8,23.1,23.8z"/>
</svg>
