<?xml version="1.0" encoding="utf-8"?>
<!-- Generator: Adobe Illustrator 27.3.0, SVG Export Plug-In . SVG Version: 6.00 Build 0)  -->
<svg version="1.1" id="Layer_1" xmlns="http://www.w3.org/2000/svg" xmlns:xlink="http://www.w3.org/1999/xlink" x="0px" y="0px"
	 viewBox="0 0 48 48" style="enable-background:new 0 0 48 48;" xml:space="preserve">
<path d="M23.4,24.5L23.4,24.5c-0.1,0-0.1,0-0.1,0l-0.2,0.2c0,0,0,0,0,0.1c0,0,0,0,0,0.1c0,0,0,0,0.1,0c0,0,0,0,0.1,0l0.2-0.2
	C23.4,24.6,23.5,24.6,23.4,24.5C23.5,24.6,23.4,24.5,23.4,24.5z M24.9,23.1C24.8,23.1,24.8,23.1,24.9,23.1c-0.1,0-0.1,0-0.1,0
	l-0.2,0.2c0,0,0,0,0,0.1c0,0,0,0,0,0.1c0,0,0,0,0.1,0c0,0,0,0,0.1,0l0.2-0.2C24.9,23.2,24.9,23.2,24.9,23.1L24.9,23.1z M24.9,24.7
	l-0.2-0.2c0,0,0,0-0.1,0c0,0,0,0-0.1,0c0,0,0,0,0,0.1c0,0,0,0,0,0.1l0.2,0.2c0,0,0,0,0.1,0c0,0,0,0,0.1,0
	C24.9,24.8,24.9,24.8,24.9,24.7L24.9,24.7z M23.4,23.3l-0.2-0.2c0,0,0,0-0.1,0c0,0,0,0-0.1,0c0,0,0,0,0,0.1c0,0,0,0,0,0.1l0.2,0.2
	c0,0,0,0,0.1,0c0,0,0,0,0.1,0C23.4,23.4,23.5,23.3,23.4,23.3C23.5,23.3,23.4,23.3,23.4,23.3z M24.1,24.8C24,24.8,24,24.8,24.1,24.8
	c-0.1,0-0.1,0-0.1,0s0,0,0,0.1v0.3c0,0,0,0,0,0.1c0,0,0,0,0.1,0c0,0,0,0,0.1,0c0,0,0,0,0-0.1L24.1,24.8L24.1,24.8z M24.1,22.7
	C24,22.7,24,22.7,24.1,22.7c-0.1,0-0.1,0-0.1,0s0,0,0,0.1v0.3c0,0,0,0,0,0.1c0,0,0,0,0.1,0c0,0,0,0,0.1,0c0,0,0,0,0-0.1L24.1,22.7
	L24.1,22.7z M25.2,23.9L25.2,23.9h-0.3c0,0,0,0-0.1,0c0,0,0,0,0,0.1c0,0,0,0,0,0.1c0,0,0,0,0.1,0h0.3c0,0,0,0,0.1,0
	C25.3,24,25.3,24,25.2,23.9C25.3,23.9,25.3,23.9,25.2,23.9z M23.2,23.9C23.2,23.9,23.1,23.9,23.2,23.9h-0.3c0,0,0,0-0.1,0
	c0,0,0,0,0,0.1c0,0,0,0,0,0.1c0,0,0,0,0.1,0h0.3c0,0,0,0,0.1,0C23.2,24,23.2,24,23.2,23.9L23.2,23.9z"/>
<path d="M38.8,23.9c0.4,9.5-9.4,16.9-18.4,14.5c-5-1.5-8.3-4.7-9.9-8.4c-1.8-4.1-1.7-8.9,0.3-12.9c1.5-3,4-5.5,7.4-6.9
	c2.1-0.8,4.6-1.2,7.4-1.1c-4.3,4.4-3.8,9.5-1,12.8c3.1,3.8,9.1,5.2,14.2,0.5C38.8,22.8,38.8,23.9,38.8,23.9z"/>
</svg>
