<?xml version="1.0" encoding="utf-8"?>
<!-- Generator: Adobe Illustrator 27.3.0, SVG Export Plug-In . SVG Version: 6.00 Build 0)  -->
<svg version="1.1" id="Layer_1" xmlns="http://www.w3.org/2000/svg" xmlns:xlink="http://www.w3.org/1999/xlink" x="0px" y="0px"
	 viewBox="0 0 48 48" style="enable-background:new 0 0 48 48;" xml:space="preserve">
<path d="M34.1,24c0,5.6-4.5,10.1-10.1,10.1S14,29.6,14,24s4.5-10.1,10.1-10.1c0.3,0,0.7,0,1,0c2.3,0.2,4.3,1.2,5.9,2.6
	c1.8,1.6,2.9,3.9,3.2,6.4C34.1,23.3,34.1,23.7,34.1,24z"/>
<g>
	<path d="M24,10L24,10c-0.8,0-1.5-0.7-1.5-1.5v-5C22.5,2.7,23.1,2,24,2h0c0.8,0,1.5,0.7,1.5,1.5v5C25.5,9.3,24.8,10,24,10z"/>
	<path d="M14,14.1L14,14.1c-0.6,0.6-1.5,0.6-2.1,0l-3.5-3.5c-0.6-0.6-0.6-1.5,0-2.1l0,0c0.6-0.6,1.5-0.6,2.1,0L14,12
		C14.6,12.6,14.6,13.5,14,14.1z"/>
	<path d="M10,24L10,24c0,0.8-0.7,1.5-1.5,1.5h-5C2.7,25.5,2,24.9,2,24v0c0-0.8,0.7-1.5,1.5-1.5h5C9.3,22.5,10,23.2,10,24z"/>
	<path d="M14.1,34L14.1,34c0.6,0.6,0.6,1.5,0,2.1l-3.5,3.5c-0.6,0.6-1.5,0.6-2.1,0l0,0c-0.6-0.6-0.6-1.5,0-2.1L12,34
		C12.6,33.4,13.5,33.4,14.1,34z"/>
	<path d="M24,38L24,38c0.8,0,1.5,0.7,1.5,1.5v5c0,0.8-0.7,1.5-1.5,1.5h0c-0.8,0-1.5-0.7-1.5-1.5v-5C22.5,38.7,23.2,38,24,38z"/>
	<path d="M34,33.9L34,33.9c0.6-0.6,1.5-0.6,2.1,0l3.5,3.5c0.6,0.6,0.6,1.5,0,2.1l0,0c-0.6,0.6-1.5,0.6-2.1,0L34,36
		C33.4,35.4,33.4,34.5,34,33.9z"/>
	<path d="M38,24L38,24c0-0.8,0.7-1.5,1.5-1.5h5c0.8,0,1.5,0.7,1.5,1.5v0c0,0.8-0.7,1.5-1.5,1.5h-5C38.7,25.5,38,24.8,38,24z"/>
	<path d="M33.9,14L33.9,14c-0.6-0.6-0.6-1.5,0-2.1l3.5-3.5c0.6-0.6,1.5-0.6,2.1,0l0,0c0.6,0.6,0.6,1.5,0,2.1L36,14
		C35.4,14.6,34.5,14.6,33.9,14z"/>
</g>
</svg>
