<?xml version="1.0" encoding="utf-8"?>
<!-- Generator: Adobe Illustrator 27.3.0, SVG Export Plug-In . SVG Version: 6.00 Build 0)  -->
<svg version="1.1" id="Layer_1" xmlns="http://www.w3.org/2000/svg" xmlns:xlink="http://www.w3.org/1999/xlink" x="0px" y="0px"
	 viewBox="0 0 48 48" style="enable-background:new 0 0 48 48;" xml:space="preserve">
<path d="M34,24c0,2.8-1,5.1-2.9,7.1S26.8,34,24,34s-5.1-1-7.1-2.9S14,26.8,14,24s1-5.1,2.9-7.1S21.2,14,24,14s5.1,1,7.1,2.9
	S34,21.2,34,24z"/>
<path d="M14.1,33.9c-0.3-0.3-0.6-0.5-1-0.5s-0.8,0.1-1,0.5l-2.8,2.8C9,37,8.8,37.4,8.8,37.8c0,0.4,0.1,0.8,0.4,1.1
	c0.3,0.3,0.7,0.4,1.1,0.4c0.4,0,0.8-0.1,1.1-0.4l2.8-2.8c0.3-0.3,0.5-0.7,0.5-1C14.5,34.5,14.4,34.2,14.1,33.9z M38.9,9.1
	c-0.3-0.3-0.7-0.4-1.1-0.4c-0.4,0-0.8,0.1-1.1,0.4L33.9,12c-0.3,0.3-0.5,0.7-0.5,1c0,0.4,0.1,0.8,0.5,1c0.3,0.3,0.7,0.4,1.1,0.4
	c0.4,0,0.8-0.1,1-0.4l2.8-2.8c0.3-0.3,0.5-0.7,0.5-1.1C39.3,9.8,39.2,9.4,38.9,9.1z M38.8,36.7L36,33.9c-0.3-0.3-0.7-0.5-1-0.5
	c-0.4,0-0.7,0.1-1,0.5c-0.3,0.3-0.4,0.6-0.4,1s0.1,0.8,0.4,1.1l2.8,2.8c0.3,0.3,0.7,0.5,1.1,0.5c0.4,0,0.8-0.1,1.1-0.4
	c0.3-0.3,0.4-0.7,0.4-1.1C39.3,37.4,39.2,37,38.8,36.7z M14.1,12l-2.8-2.8c-0.3-0.3-0.7-0.5-1.1-0.5c-0.4,0-0.8,0.1-1.1,0.4
	c-0.3,0.3-0.4,0.7-0.4,1.1c0,0.4,0.1,0.8,0.4,1.1l2.8,2.8c0.3,0.3,0.7,0.4,1.1,0.4c0.4,0,0.8-0.1,1-0.4c0.3-0.3,0.4-0.6,0.4-1
	C14.5,12.7,14.4,12.3,14.1,12z M25.1,38.4C24.8,38.1,24.4,38,24,38s-0.8,0.1-1.1,0.4s-0.4,0.7-0.4,1.1v5c0,0.4,0.1,0.8,0.4,1.1
	S23.5,46,24,46s0.8-0.1,1.1-0.4s0.4-0.6,0.4-1.1v-5C25.5,39.1,25.4,38.7,25.1,38.4z M25.1,2.4C24.8,2.1,24.4,2,24,2
	s-0.8,0.1-1.1,0.4S22.5,3,22.5,3.5v5c0,0.4,0.1,0.8,0.4,1.1C23.2,9.9,23.6,10,24,10s0.8-0.1,1.1-0.4s0.4-0.6,0.4-1.1v-5
	C25.5,3.1,25.4,2.7,25.1,2.4z M45.6,22.9c-0.3-0.3-0.6-0.4-1.1-0.4h-5c-0.4,0-0.8,0.1-1.1,0.4C38.1,23.2,38,23.6,38,24
	s0.1,0.8,0.4,1.1s0.7,0.4,1.1,0.4h5c0.4,0,0.8-0.1,1.1-0.4S46,24.5,46,24S45.9,23.2,45.6,22.9z M9.6,22.9c-0.3-0.3-0.6-0.4-1.1-0.4
	h-5c-0.4,0-0.8,0.1-1.1,0.4C2.1,23.2,2,23.6,2,24s0.1,0.8,0.4,1.1s0.7,0.4,1.1,0.4h5c0.4,0,0.8-0.1,1.1-0.4C9.9,24.8,10,24.4,10,24
	S9.9,23.2,9.6,22.9z"/>
</svg>
