<?xml version="1.0" encoding="utf-8"?>
<!-- Generator: Adobe Illustrator 27.3.0, SVG Export Plug-In . SVG Version: 6.00 Build 0)  -->
<svg version="1.1" id="Layer_2" xmlns="http://www.w3.org/2000/svg" xmlns:xlink="http://www.w3.org/1999/xlink" x="0px" y="0px"
	 viewBox="0 0 90 90" style="enable-background:new 0 0 90 90;" xml:space="preserve">
<style type="text/css">
	.st0{fill:#FFFFFF;}
	.st1{fill:#231F20;}
	.st2{clip-path:url(#SVGID_00000124860786942971276560000018141606436107718077_);}
	.st3{fill:#A880FF;}
	.st4{fill:#5100FF;}
	.st5{fill:#E3A72F;}
	.st6{fill:#EBEBEB;}
	.st7{fill:#414042;}
	.st8{fill:#F0ECC9;}
	.st9{fill:#7DD0DE;}
	.st10{fill:#FFDE17;}
	.st11{opacity:0.4;}
	.st12{fill:#D1D3D4;}
	.st13{opacity:0.2;}
	.st14{fill:#F1F2F2;}
	.st15{fill:#79CFD3;}
	.st16{fill:#6BB7BF;}
	.st17{fill:#ED1C24;}
	.st18{fill:#DEE0E0;}
	.st19{fill:#EAC058;}
	.st20{fill:#503D2E;}
	.st21{opacity:5.000000e-02;}
	.st22{opacity:0.15;}
	.st23{opacity:0.1;}
	.st24{clip-path:url(#SVGID_00000087409086905083784890000006335246911477829264_);}
	.st25{fill:#BCF4F7;}
	.st26{fill:none;}
	.st27{fill:#D1654B;}
	.st28{fill:#E2B86F;}
	.st29{fill:#344951;}
	.st30{opacity:0.8;}
	.st31{clip-path:url(#SVGID_00000021829621083642775980000006185240027572889518_);}
	.st32{clip-path:url(#SVGID_00000050644725766923918730000003863124982299929272_);}
	.st33{fill:#603913;}
	.st34{opacity:7.000000e-02;}
	.st35{clip-path:url(#SVGID_00000035516968315628675530000005777974784375430314_);}
	.st36{fill:#F2D636;}
	.st37{clip-path:url(#SVGID_00000103252738713589105710000003407215073792073151_);}
	.st38{clip-path:url(#SVGID_00000176754633105936245510000002357613252898124969_);}
	.st39{fill:#B7B7B7;}
	.st40{fill:#F5F5F5;}
	.st41{clip-path:url(#SVGID_00000135661417471071325550000002731994798751893643_);}
	.st42{fill:#05605D;}
	.st43{fill:#057272;}
	.st44{clip-path:url(#SVGID_00000101076390118182235640000000216012250440812213_);}
	.st45{clip-path:url(#SVGID_00000016034815616482522950000001975012270192696743_);}
	.st46{fill:#6CB9C1;}
	.st47{fill:#74B98D;}
	.st48{fill:#FCC787;}
	.st49{fill:#FBB47C;}
	.st50{fill:#F9A271;}
	.st51{fill:#F88F66;}
	.st52{opacity:0.5;}
	.st53{clip-path:url(#SVGID_00000157299477897465919150000013004464487698112175_);}
</style>
<g>
	<g>
		<g>
			<g>
				<g>
					<ellipse transform="matrix(0.9239 -0.3827 0.3827 0.9239 -13.7953 20.6462)" cx="45" cy="45" rx="44" ry="44"/>
				</g>
			</g>
		</g>
	</g>
	<g>
		<g>
			<g>
				<g>
					<g>
						<path class="st39" d="M69.2,56.9c0,0.4-0.3,0.8-0.8,0.8c-0.4,0-0.8-0.3-0.8-0.8s0.3-0.8,0.8-0.8
							C68.8,56.1,69.2,56.5,69.2,56.9z"/>
					</g>
				</g>
			</g>
		</g>
		<g>
			<g>
				<g>
					<g>
						<path class="st39" d="M47.9,79.7c0,0.4-0.3,0.8-0.8,0.8c-0.4,0-0.8-0.3-0.8-0.8s0.3-0.8,0.8-0.8C47.6,79,47.9,79.3,47.9,79.7z
							"/>
					</g>
				</g>
			</g>
		</g>
		<g>
			<g>
				<g>
					<g>
						<path class="st39" d="M21.2,45.4c0,1.1-0.9,1.9-1.9,1.9c-1.1,0-1.9-0.9-1.9-1.9s0.9-1.9,1.9-1.9
							C20.3,43.5,21.2,44.4,21.2,45.4z"/>
					</g>
				</g>
			</g>
		</g>
		<g>
			<g>
				<g>
					<g>
						<path class="st39" d="M66.2,42.6c0,0.3-0.2,0.5-0.5,0.5c-0.3,0-0.5-0.2-0.5-0.5c0-0.3,0.2-0.5,0.5-0.5
							C65.9,42.1,66.2,42.3,66.2,42.6z"/>
					</g>
				</g>
			</g>
		</g>
		<g>
			<g>
				<g>
					<g>
						<path class="st39" d="M61.9,77.3c0,0.3-0.2,0.5-0.5,0.5c-0.3,0-0.5-0.2-0.5-0.5c0-0.3,0.2-0.5,0.5-0.5
							C61.7,76.8,61.9,77,61.9,77.3z"/>
					</g>
				</g>
			</g>
		</g>
		<g>
			<g>
				<g>
					<g>
						<path class="st39" d="M33.6,13.9c0,0.3-0.2,0.5-0.5,0.5c-0.3,0-0.5-0.2-0.5-0.5c0-0.3,0.2-0.5,0.5-0.5
							C33.4,13.4,33.6,13.6,33.6,13.9z"/>
					</g>
				</g>
			</g>
		</g>
		<g>
			<g>
				<g>
					<g>
						<path class="st39" d="M73.2,37.6c0,1.1-0.9,2.1-2.1,2.1c-1.1,0-2.1-0.9-2.1-2.1c0-1.1,0.9-2.1,2.1-2.1
							C72.2,35.5,73.2,36.4,73.2,37.6z"/>
					</g>
				</g>
			</g>
		</g>
		<g>
			<g>
				<g>
					<g>
						<path class="st39" d="M25.9,27.2c0,0.4-0.3,0.7-0.7,0.7c-0.4,0-0.7-0.3-0.7-0.7c0-0.4,0.3-0.7,0.7-0.7
							C25.6,26.4,25.9,26.7,25.9,27.2z"/>
					</g>
				</g>
			</g>
		</g>
		<g>
			<g>
				<g>
					<g>
						<path class="st39" d="M17.4,54.6c0,0.2-0.2,0.4-0.4,0.4c-0.2,0-0.4-0.2-0.4-0.4c0-0.2,0.2-0.4,0.4-0.4
							C17.2,54.2,17.4,54.4,17.4,54.6z"/>
					</g>
				</g>
			</g>
		</g>
		<g>
			<g>
				<g>
					<g>
						<path class="st39" d="M28,39.1c0,0.9-0.7,1.7-1.7,1.7c-0.9,0-1.7-0.7-1.7-1.7c0-0.9,0.7-1.7,1.7-1.7
							C27.3,37.4,28,38.2,28,39.1z"/>
					</g>
				</g>
			</g>
		</g>
		<g>
			<g>
				<g>
					<g>
						<path class="st39" d="M25.1,67.9c0,0.4-0.3,0.7-0.7,0.7c-0.4,0-0.7-0.3-0.7-0.7c0-0.4,0.3-0.7,0.7-0.7
							C24.8,67.2,25.1,67.5,25.1,67.9z"/>
					</g>
				</g>
			</g>
		</g>
		<g>
			<g>
				<g>
					<g>
						<circle class="st39" cx="53.3" cy="10.9" r="0.8"/>
					</g>
				</g>
			</g>
		</g>
	</g>
	<g>
		<g>
			<g>
				<g>
					<path class="st40" d="M50.8,31v-5h1.2c1.5,0,2.7-1.2,2.7-2.7c0-1.5-1.2-2.7-2.7-2.7H37.9c-1.5,0-2.7,1.2-2.7,2.7
						c0,1.5,1.2,2.7,2.7,2.7h1.2v5c-9.6,2.6-16.6,11.3-16.6,21.6c0,12.4,10,22.4,22.4,22.4c12.4,0,22.4-10,22.4-22.4
						C67.4,42.3,60.4,33.6,50.8,31z"/>
				</g>
			</g>
		</g>
		<g>
			<g>
				<g>
					<path class="st3" d="M41.4,14.4h7.1c1.1,0,1.9,1,1.6,2.1l-0.8,4.4h-8.6l-0.8-4.4C39.6,15.4,40.3,14.4,41.4,14.4z"/>
				</g>
			</g>
		</g>
		<g>
			<g>
				<g>
					<circle class="st3" cx="45" cy="52.5" r="17.7"/>
				</g>
			</g>
		</g>
		<g>
			<g>
				<g>
					<g>
						<g>
							<path class="st4" d="M35.1,62.6c-0.3-0.3-0.5-0.6-0.6-0.9l0.8-0.3c0.1,0.3,0.3,0.5,0.5,0.7L35.1,62.6z M34.1,60.6
								c0-0.2-0.1-0.5-0.1-0.7c0-0.1,0-0.2,0-0.3l0.8,0c0,0.1,0,0.2,0,0.3c0,0.2,0,0.4,0,0.6L34.1,60.6z M35.1,58.7l-0.8-0.2
								c0.1-0.3,0.1-0.6,0.2-1l0.8,0.2C35.2,58.1,35.1,58.4,35.1,58.7z M35.6,56.9l-0.8-0.3c0.1-0.3,0.2-0.6,0.4-0.9l0.8,0.3
								C35.8,56.4,35.7,56.7,35.6,56.9z M36.3,55.2l-0.8-0.4c0.1-0.3,0.3-0.6,0.5-0.9l0.7,0.4C36.6,54.7,36.5,55,36.3,55.2z
								 M37.3,53.6l-0.7-0.4c0.2-0.3,0.4-0.5,0.5-0.8l0.7,0.5C37.6,53.1,37.4,53.3,37.3,53.6z M38.3,52l-0.7-0.5
								c0.2-0.3,0.4-0.5,0.6-0.8l0.7,0.5C38.7,51.5,38.5,51.8,38.3,52z M39.5,50.5L38.9,50c0.2-0.2,0.4-0.5,0.6-0.7l0.6,0.6
								C39.9,50,39.7,50.3,39.5,50.5z M40.8,49.1l-0.6-0.6c0.2-0.2,0.4-0.5,0.7-0.7l0.6,0.6C41.2,48.6,41,48.9,40.8,49.1z
								 M42.1,47.7l-0.6-0.6c0.2-0.2,0.5-0.4,0.7-0.7l0.6,0.6C42.6,47.3,42.3,47.5,42.1,47.7z M43.5,46.5L43,45.8
								c0.3-0.2,0.5-0.4,0.8-0.6l0.5,0.7C44,46.1,43.8,46.3,43.5,46.5z M45,45.3l-0.5-0.7c0.3-0.2,0.5-0.4,0.8-0.6l0.5,0.7
								C45.5,44.9,45.3,45.1,45,45.3z M46.6,44.2l-0.5-0.7c0.3-0.2,0.6-0.4,0.8-0.5l0.4,0.7C47.1,43.9,46.9,44,46.6,44.2z
								 M48.2,43.2l-0.4-0.7c0.3-0.2,0.6-0.3,0.9-0.4l0.4,0.8C48.8,43,48.5,43.1,48.2,43.2z M49.9,42.5l-0.3-0.8
								c0.3-0.1,0.6-0.2,0.9-0.3l0.3,0.8C50.5,42.2,50.2,42.3,49.9,42.5z M51.7,41.9l-0.2-0.8c0.3-0.1,0.6-0.1,0.8-0.1l0.1,0.8
								C52.2,41.8,52,41.9,51.7,41.9z"/>
						</g>
					</g>
				</g>
				<g>
					<g>
						<g>
							<path class="st4" d="M55.8,62.6L55.2,62c0.2-0.2,0.3-0.4,0.5-0.7l0.8,0.3C56.2,62,56,62.3,55.8,62.6z M56.7,60.6l-0.8-0.1
								c0-0.2,0-0.4,0-0.6c0-0.1,0-0.2,0-0.3l0.8,0c0,0.1,0,0.2,0,0.3C56.7,60.1,56.7,60.4,56.7,60.6z M55.8,58.7
								c-0.1-0.3-0.1-0.6-0.2-0.9l0.8-0.2c0.1,0.3,0.2,0.7,0.2,1L55.8,58.7z M55.3,56.9c-0.1-0.3-0.2-0.6-0.4-0.9l0.8-0.3
								c0.1,0.3,0.3,0.6,0.4,0.9L55.3,56.9z M54.5,55.2c-0.1-0.3-0.3-0.6-0.5-0.8l0.7-0.4c0.2,0.3,0.3,0.6,0.5,0.9L54.5,55.2z
								 M53.6,53.6c-0.2-0.3-0.3-0.5-0.5-0.8l0.7-0.5c0.2,0.3,0.4,0.5,0.5,0.8L53.6,53.6z M52.5,52c-0.2-0.3-0.4-0.5-0.6-0.8
								l0.7-0.5c0.2,0.3,0.4,0.5,0.6,0.8L52.5,52z M51.3,50.5c-0.2-0.2-0.4-0.5-0.6-0.7l0.6-0.6c0.2,0.2,0.4,0.5,0.6,0.7L51.3,50.5z
								 M50.1,49.1c-0.2-0.2-0.4-0.5-0.7-0.7l0.6-0.6c0.2,0.2,0.5,0.5,0.7,0.7L50.1,49.1z M48.7,47.7c-0.2-0.2-0.5-0.4-0.7-0.6
								l0.6-0.6c0.2,0.2,0.5,0.4,0.7,0.7L48.7,47.7z M47.3,46.5c-0.2-0.2-0.5-0.4-0.7-0.6l0.5-0.7c0.3,0.2,0.5,0.4,0.8,0.6
								L47.3,46.5z M45.8,45.3c-0.3-0.2-0.5-0.4-0.8-0.6l0.5-0.7c0.3,0.2,0.5,0.4,0.8,0.6L45.8,45.3z M44.3,44.2
								c-0.3-0.2-0.5-0.3-0.8-0.5l0.4-0.7c0.3,0.2,0.6,0.3,0.8,0.5L44.3,44.2z M42.6,43.2c-0.3-0.1-0.6-0.3-0.8-0.4l0.4-0.8
								c0.3,0.1,0.6,0.3,0.9,0.4L42.6,43.2z M40.9,42.5c-0.3-0.1-0.6-0.2-0.9-0.3l0.3-0.8c0.3,0.1,0.6,0.2,0.9,0.3L40.9,42.5z
								 M39.1,41.9c-0.3-0.1-0.5-0.1-0.8-0.1l0.1-0.8c0.3,0,0.6,0.1,0.8,0.1L39.1,41.9z"/>
						</g>
					</g>
				</g>
				<g>
					<g>
						<g>
							<path class="st4" d="M37.8,63.6c-1.1,0-2-0.3-2.7-1c-0.2-0.2-0.2-0.4,0-0.6c0.2-0.2,0.4-0.2,0.6,0c1,1,3,1,5.5-0.1
								c2.6-1.1,5.6-3.1,8.2-5.8c5.3-5.3,8-11.5,5.9-13.7c-0.2-0.2-0.2-0.4,0-0.6c0.2-0.2,0.4-0.2,0.6,0c2.5,2.5,0,9-5.9,14.9
								c-2.7,2.7-5.7,4.8-8.5,6C40.1,63.3,38.8,63.6,37.8,63.6z"/>
						</g>
					</g>
				</g>
				<g>
					<g>
						<g>
							<path class="st4" d="M53.1,63.6c-1.1,0-2.3-0.3-3.7-0.9c-2.7-1.1-5.8-3.2-8.5-6c-5.8-5.8-8.4-12.3-5.9-14.9
								c0.2-0.2,0.4-0.2,0.6,0c0.2,0.2,0.2,0.4,0,0.6c-2.1,2.1,0.6,8.4,5.9,13.7c2.6,2.6,5.6,4.7,8.2,5.8c2.5,1,4.5,1,5.5,0.1
								c0.2-0.2,0.4-0.2,0.6,0c0.2,0.2,0.2,0.4,0,0.6C55.1,63.2,54.2,63.6,53.1,63.6z"/>
						</g>
					</g>
				</g>
			</g>
			<g>
				<g>
					<g>
						<g>
							<path class="st4" d="M48.4,51.6l-0.7-0.1c0-0.1-0.1-0.2-0.1-0.3l0.4-0.6c0.1-0.1,0.1-0.2,0-0.3l-0.5-0.5
								c-0.1-0.1-0.2-0.1-0.3,0l-0.6,0.4c-0.1,0-0.2-0.1-0.3-0.1L46,49.3c0-0.1-0.1-0.2-0.2-0.2H45c-0.1,0-0.2,0.1-0.2,0.2L44.7,50
								c-0.1,0-0.2,0.1-0.3,0.1l-0.6-0.4c-0.1-0.1-0.2-0.1-0.3,0l-0.5,0.5c-0.1,0.1-0.1,0.2,0,0.3l0.4,0.6c0,0.1-0.1,0.2-0.1,0.3
								l-0.7,0.1c-0.1,0-0.2,0.1-0.2,0.2v0.8c0,0.1,0.1,0.2,0.2,0.2l0.7,0.1c0,0.1,0.1,0.2,0.1,0.3l-0.4,0.6c-0.1,0.1-0.1,0.2,0,0.3
								l0.5,0.5c0.1,0.1,0.2,0.1,0.3,0l0.6-0.4c0.1,0,0.2,0.1,0.3,0.1l0.1,0.7c0,0.1,0.1,0.2,0.2,0.2h0.8c0.1,0,0.2-0.1,0.2-0.2
								l0.1-0.7c0.1,0,0.2-0.1,0.3-0.1l0.6,0.4c0.1,0.1,0.2,0.1,0.3,0l0.5-0.5c0.1-0.1,0.1-0.2,0-0.3l-0.4-0.6
								c0-0.1,0.1-0.2,0.1-0.3l0.7-0.1c0.1,0,0.2-0.1,0.2-0.2v-0.8C48.6,51.7,48.5,51.6,48.4,51.6z"/>
						</g>
					</g>
				</g>
				<g>
					<g>
						<g>
							<circle class="st4" cx="45.4" cy="52.3" r="1.5"/>
						</g>
					</g>
				</g>
			</g>
			<g>
				<g>
					<g>
						<path class="st4" d="M46.1,52.3c0,0.4-0.3,0.7-0.7,0.7c-0.4,0-0.7-0.3-0.7-0.7c0-0.4,0.3-0.7,0.7-0.7
							C45.8,51.5,46.1,51.9,46.1,52.3z"/>
					</g>
				</g>
			</g>
			<g>
				<g>
					<g>
						<path class="st4" d="M36.3,44.7c0,1-0.8,1.8-1.8,1.8s-1.8-0.8-1.8-1.8s0.8-1.8,1.8-1.8S36.3,43.7,36.3,44.7z"/>
					</g>
				</g>
			</g>
			<g>
				<g>
					<g>
						<path class="st4" d="M56.6,62.5c0,1-0.8,1.8-1.8,1.8c-1,0-1.8-0.8-1.8-1.8c0-1,0.8-1.8,1.8-1.8C55.8,60.7,56.6,61.5,56.6,62.5
							z"/>
					</g>
				</g>
			</g>
			<g>
				<g>
					<g>
						<path class="st4" d="M57.2,48c0,1-0.8,1.8-1.8,1.8c-1,0-1.8-0.8-1.8-1.8s0.8-1.8,1.8-1.8C56.5,46.3,57.2,47,57.2,48z"/>
					</g>
				</g>
			</g>
		</g>
	</g>
</g>
</svg>
