<?xml version="1.0" encoding="utf-8"?>
<!-- Generator: Adobe Illustrator 27.3.0, SVG Export Plug-In . SVG Version: 6.00 Build 0)  -->
<svg version="1.1" id="Layer_2" xmlns="http://www.w3.org/2000/svg" xmlns:xlink="http://www.w3.org/1999/xlink" x="0px" y="0px"
	 viewBox="0 0 90 90" style="enable-background:new 0 0 90 90;" xml:space="preserve">
<style type="text/css">
	.st0{fill:#FFFFFF;}
	.st1{fill:#231F20;}
	.st2{clip-path:url(#SVGID_00000001652461092712553050000000395875153253756563_);}
	.st3{fill:#A880FF;}
	.st4{fill:#5100FF;}
	.st5{fill:#E3A72F;}
	.st6{fill:#EBEBEB;}
	.st7{fill:#414042;}
	.st8{fill:#F0ECC9;}
	.st9{fill:#7DD0DE;}
	.st10{fill:#FFDE17;}
	.st11{opacity:0.4;}
	.st12{fill:#D1D3D4;}
	.st13{opacity:0.2;}
	.st14{fill:#F1F2F2;}
	.st15{fill:#79CFD3;}
	.st16{fill:#6BB7BF;}
	.st17{fill:#ED1C24;}
	.st18{fill:#DEE0E0;}
	.st19{fill:#EAC058;}
	.st20{fill:#503D2E;}
	.st21{opacity:5.000000e-02;}
	.st22{opacity:0.15;}
	.st23{opacity:0.1;}
	.st24{clip-path:url(#SVGID_00000155859297110503086010000000363991959104640396_);}
	.st25{fill:#BCF4F7;}
	.st26{fill:none;}
	.st27{fill:#D1654B;}
	.st28{fill:#E2B86F;}
	.st29{fill:#344951;}
	.st30{opacity:0.8;}
	.st31{clip-path:url(#SVGID_00000098902073367601650380000010307943770325322408_);}
	.st32{clip-path:url(#SVGID_00000175315820087718597920000011266045349223789227_);}
	.st33{fill:#603913;}
	.st34{opacity:7.000000e-02;}
	.st35{clip-path:url(#SVGID_00000103264420262873108700000000636595726940368555_);}
	.st36{fill:#F2D636;}
	.st37{clip-path:url(#SVGID_00000088098256312236677710000009023781856460761014_);}
	.st38{clip-path:url(#SVGID_00000034796003866934251610000007389245551238335130_);}
	.st39{fill:#B7B7B7;}
	.st40{fill:#F5F5F5;}
	.st41{clip-path:url(#SVGID_00000033330196703339429740000014387665426919041187_);}
	.st42{fill:#05605D;}
	.st43{fill:#057272;}
	.st44{clip-path:url(#SVGID_00000049196284219066642500000001721105660068665473_);}
	.st45{clip-path:url(#SVGID_00000176723856464428031810000015432257278094282146_);}
	.st46{fill:#6CB9C1;}
	.st47{fill:#74B98D;}
	.st48{fill:#FCC787;}
	.st49{fill:#FBB47C;}
	.st50{fill:#F9A271;}
	.st51{fill:#F88F66;}
	.st52{opacity:0.5;}
	.st53{clip-path:url(#SVGID_00000031888766431901782570000009675470067136700314_);}
</style>
<g>
	<g>
		<g>
			<g>
				<g>
					<ellipse transform="matrix(0.9239 -0.3827 0.3827 0.9239 -13.7953 20.6462)" cx="45" cy="45" rx="44" ry="44"/>
				</g>
			</g>
		</g>
	</g>
	<g>
		<g>
			<g>
				<g>
					<g>
						<path class="st39" d="M69.2,56.9c0,0.4-0.3,0.8-0.8,0.8c-0.4,0-0.8-0.3-0.8-0.8s0.3-0.8,0.8-0.8
							C68.8,56.1,69.2,56.5,69.2,56.9z"/>
					</g>
				</g>
			</g>
		</g>
		<g>
			<g>
				<g>
					<g>
						<path class="st39" d="M47.9,79.7c0,0.4-0.3,0.8-0.8,0.8c-0.4,0-0.8-0.3-0.8-0.8s0.3-0.8,0.8-0.8C47.6,79,47.9,79.3,47.9,79.7z
							"/>
					</g>
				</g>
			</g>
		</g>
		<g>
			<g>
				<g>
					<g>
						<path class="st39" d="M21.2,45.4c0,1.1-0.9,1.9-1.9,1.9c-1.1,0-1.9-0.9-1.9-1.9s0.9-1.9,1.9-1.9
							C20.3,43.5,21.2,44.4,21.2,45.4z"/>
					</g>
				</g>
			</g>
		</g>
		<g>
			<g>
				<g>
					<g>
						<path class="st39" d="M66.2,42.6c0,0.3-0.2,0.5-0.5,0.5c-0.3,0-0.5-0.2-0.5-0.5c0-0.3,0.2-0.5,0.5-0.5
							C65.9,42.1,66.2,42.3,66.2,42.6z"/>
					</g>
				</g>
			</g>
		</g>
		<g>
			<g>
				<g>
					<g>
						<path class="st39" d="M61.9,77.3c0,0.3-0.2,0.5-0.5,0.5c-0.3,0-0.5-0.2-0.5-0.5c0-0.3,0.2-0.5,0.5-0.5
							C61.7,76.8,61.9,77,61.9,77.3z"/>
					</g>
				</g>
			</g>
		</g>
		<g>
			<g>
				<g>
					<g>
						<path class="st39" d="M33.6,13.9c0,0.3-0.2,0.5-0.5,0.5c-0.3,0-0.5-0.2-0.5-0.5c0-0.3,0.2-0.5,0.5-0.5
							C33.4,13.4,33.6,13.6,33.6,13.9z"/>
					</g>
				</g>
			</g>
		</g>
		<g>
			<g>
				<g>
					<g>
						<path class="st39" d="M73.2,37.6c0,1.1-0.9,2.1-2.1,2.1c-1.1,0-2.1-0.9-2.1-2.1c0-1.1,0.9-2.1,2.1-2.1
							C72.2,35.5,73.2,36.4,73.2,37.6z"/>
					</g>
				</g>
			</g>
		</g>
		<g>
			<g>
				<g>
					<g>
						<path class="st39" d="M25.9,27.2c0,0.4-0.3,0.7-0.7,0.7c-0.4,0-0.7-0.3-0.7-0.7c0-0.4,0.3-0.7,0.7-0.7
							C25.6,26.4,25.9,26.7,25.9,27.2z"/>
					</g>
				</g>
			</g>
		</g>
		<g>
			<g>
				<g>
					<g>
						<path class="st39" d="M17.4,54.6c0,0.2-0.2,0.4-0.4,0.4c-0.2,0-0.4-0.2-0.4-0.4c0-0.2,0.2-0.4,0.4-0.4
							C17.2,54.2,17.4,54.4,17.4,54.6z"/>
					</g>
				</g>
			</g>
		</g>
		<g>
			<g>
				<g>
					<g>
						<path class="st39" d="M28,39.1c0,0.9-0.7,1.7-1.7,1.7c-0.9,0-1.7-0.7-1.7-1.7c0-0.9,0.7-1.7,1.7-1.7
							C27.3,37.4,28,38.2,28,39.1z"/>
					</g>
				</g>
			</g>
		</g>
		<g>
			<g>
				<g>
					<g>
						<path class="st39" d="M25.1,67.9c0,0.4-0.3,0.7-0.7,0.7c-0.4,0-0.7-0.3-0.7-0.7c0-0.4,0.3-0.7,0.7-0.7
							C24.8,67.2,25.1,67.5,25.1,67.9z"/>
					</g>
				</g>
			</g>
		</g>
		<g>
			<g>
				<g>
					<g>
						<circle class="st39" cx="53.3" cy="10.9" r="0.8"/>
					</g>
				</g>
			</g>
		</g>
	</g>
	<g>
		<g>
			<g>
				<g>
					<path class="st40" d="M63.4,33.8c0-10.9-9.4-19.6-20.5-18.3c-8.4,0.9-15.2,7.7-16.2,16c-0.7,6,1.4,11.5,5.3,15.3
						c3.4,3.4,5.2,8.1,5.2,12.9v2.2h15.7v-2.3c0-4.9,2-9.5,5.4-13C61.4,43.4,63.4,38.9,63.4,33.8z"/>
				</g>
			</g>
		</g>
		<g>
			<g>
				<g>
					<circle class="st3" cx="45" cy="33.8" r="13.5"/>
				</g>
			</g>
		</g>
		<g>
			<defs>
				<path id="SVGID_00000139283895212104852450000016205248907327308730_" d="M63.4,33.8c0-10.9-9.4-19.6-20.5-18.3
					c-8.4,0.9-15.2,7.7-16.2,16c-0.7,6,1.4,11.5,5.3,15.3c3.4,3.4,5.2,8.1,5.2,12.9v2.2h15.7v-2.3c0-4.9,2-9.5,5.4-13
					C61.4,43.4,63.4,38.9,63.4,33.8z"/>
			</defs>
			<clipPath id="SVGID_00000111879317177742647630000002549139148626960289_">
				<use xlink:href="#SVGID_00000139283895212104852450000016205248907327308730_"  style="overflow:visible;"/>
			</clipPath>
			<g style="clip-path:url(#SVGID_00000111879317177742647630000002549139148626960289_);">
				<g>
					<g>
						<g>
							<g>
								<rect x="40" y="39.7" class="st4" width="10.1" height="38.9"/>
							</g>
						</g>
					</g>
					<g>
						<g>
							<g>
								<polygon class="st8" points="50,39.7 40,39.7 43,32.2 47,32.2 								"/>
							</g>
						</g>
					</g>
					<g>
						<g>
							<g>
								<polygon points="47,32.2 43,32.2 45,27.1 								"/>
							</g>
						</g>
					</g>
					<g>
						<g>
							<g>
								<rect x="40" y="78.7" class="st8" width="10.1" height="3.5"/>
							</g>
						</g>
					</g>
					<g>
						<g>
							<g>
								<path class="st5" d="M50,82.2v3.4c0,2.8-2.3,5.1-5,5.1c-2.8,0-5.1-2.3-5.1-5.1v-3.4H50z"/>
							</g>
						</g>
					</g>
				</g>
				<g class="st34">
					<g>
						<g>
							<polygon class="st1" points="50,39.7 45,39.7 45,27.1 47,32.2 							"/>
						</g>
					</g>
				</g>
				<g class="st34">
					<g>
						<g>
							<path class="st1" d="M45,39.7h5v45.8c0,2.8-2.3,5.1-5,5.1V39.7z"/>
						</g>
					</g>
				</g>
			</g>
		</g>
		<g>
			<g>
				<g>
					<g>
						<path class="st6" d="M54.3,56.9v11.5H35.7V56.9c0-0.8,0.6-1.4,1.4-1.4h15.8C53.7,55.5,54.3,56.1,54.3,56.9z"/>
					</g>
				</g>
			</g>
			<g>
				<g>
					<g>
						<polygon class="st6" points="50.1,72 39.9,72 35.7,68.4 54.3,68.4 						"/>
					</g>
				</g>
			</g>
			<g>
				<g>
					<g>
						<g>
							<path class="st3" d="M55,58c0,0.4-0.3,0.7-0.7,0.7H35.7c-0.4,0-0.7-0.3-0.7-0.7c0-0.4,0.3-0.7,0.7-0.7h18.6
								C54.7,57.2,55,57.6,55,58z"/>
						</g>
					</g>
				</g>
				<g>
					<g>
						<g>
							<path class="st3" d="M55,62.1c0,0.4-0.3,0.7-0.7,0.7H35.7c-0.4,0-0.7-0.3-0.7-0.7c0-0.4,0.3-0.7,0.7-0.7h18.6
								C54.7,61.3,55,61.7,55,62.1z"/>
						</g>
					</g>
				</g>
				<g>
					<g>
						<g>
							<path class="st3" d="M55,66.2c0,0.4-0.3,0.7-0.7,0.7H35.7c-0.4,0-0.7-0.3-0.7-0.7c0-0.4,0.3-0.7,0.7-0.7h18.6
								C54.7,65.4,55,65.8,55,66.2z"/>
						</g>
					</g>
				</g>
			</g>
			<g>
				<g>
					<g>
						<path class="st3" d="M50.1,72c0,0.8-0.3,1.5-0.8,2c-0.5,0.5-1.2,0.8-2,0.8h-4.5c-1.5,0-2.8-1.3-2.8-2.8H50.1z"/>
					</g>
				</g>
			</g>
		</g>
	</g>
</g>
</svg>
