<?xml version="1.0" encoding="utf-8"?>
<!-- Generator: Adobe Illustrator 27.3.0, SVG Export Plug-In . SVG Version: 6.00 Build 0)  -->
<svg version="1.1" id="Layer_2_00000044172610385843672560000008499862466663105938_"
	 xmlns="http://www.w3.org/2000/svg" xmlns:xlink="http://www.w3.org/1999/xlink" x="0px" y="0px" viewBox="0 0 90 90"
	 style="enable-background:new 0 0 90 90;" xml:space="preserve">
<style type="text/css">
	.st0{fill:#A880FF;}
	.st1{fill:#5100FF;}
	.st2{fill:#FFFFFF;}
	.st3{fill:#EBEBEB;}
	.st4{fill:#B7B7B7;}
</style>
<g>
	<g>
		<g>
			<g>
				<g>
					<g>
						<ellipse cx="45" cy="45" rx="44" ry="44"/>
					</g>
				</g>
			</g>
		</g>
	</g>
	<g>
		<g>
			<g>
				<g>
					<g>
						<g>
							<g>
								<g>
									<rect x="34.9" y="64.2" width="6.6" height="2.3"/>
								</g>
							</g>
						</g>
					</g>
					<g>
						<g>
							<g>
								<g>
									<rect x="34.9" y="69.2" class="st0" width="6.6" height="2.3"/>
								</g>
							</g>
						</g>
					</g>
					<g>
						<g>
							<g>
								<g>
									<rect x="35.3" y="71.5" class="st1" width="5.6" height="1.6"/>
								</g>
							</g>
						</g>
					</g>
					<g>
						<g>
							<g>
								<g>
									<rect x="33.9" y="66.4" class="st1" width="8.5" height="2.8"/>
								</g>
							</g>
						</g>
					</g>
					<g>
						<g>
							<g>
								<g>
									<polygon class="st0" points="38.1,78.2 36.9,73.1 39.4,73.1 									"/>
								</g>
							</g>
						</g>
					</g>
				</g>
				<g>
					<g>
						<g>
							<g>
								<g>
									<rect x="48.5" y="64.2" width="6.6" height="2.3"/>
								</g>
							</g>
						</g>
					</g>
					<g>
						<g>
							<g>
								<g>
									<rect x="48.5" y="69.2" class="st0" width="6.6" height="2.3"/>
								</g>
							</g>
						</g>
					</g>
					<g>
						<g>
							<g>
								<g>
									<rect x="49" y="71.5" class="st1" width="5.6" height="1.6"/>
								</g>
							</g>
						</g>
					</g>
					<g>
						<g>
							<g>
								<g>
									<rect x="47.6" y="66.4" class="st1" width="8.5" height="2.8"/>
								</g>
							</g>
						</g>
					</g>
					<g>
						<g>
							<g>
								<g>
									<polygon class="st0" points="51.8,78.2 50.6,73.1 53.1,73.1 									"/>
								</g>
							</g>
						</g>
					</g>
				</g>
			</g>
			<g>
				<g>
					<g>
						<g>
							<g>
								<path class="st1" d="M49.3,23.2v41h-8.7v-41c0-1.4,0.2-2.8,0.7-4.1l2.2-6.1c0.5-1.4,2.3-1.4,2.8,0l2.2,6.1
									C49.1,20.4,49.3,21.8,49.3,23.2z"/>
							</g>
						</g>
					</g>
				</g>
				<g>
					<g>
						<g>
							<g>
								<rect x="40.6" y="22.7" class="st1" width="8.7" height="7.9"/>
							</g>
						</g>
					</g>
				</g>
			</g>
			<g>
				<g>
					<g>
						<g>
							<path class="st2" d="M48.4,33.1v31h-6.9v-31c0-1.1,0.2-2.1,0.5-3.1c0.3-0.9,0.7-1.7,1.2-2.4l0.1-0.2c0.8-1.1,2.4-1.1,3.2,0
								l0.1,0.2c0.5,0.7,0.9,1.6,1.2,2.4C48.2,31,48.4,32.1,48.4,33.1z"/>
						</g>
					</g>
				</g>
			</g>
			<g>
				<g>
					<g>
						<g>
							<path d="M47.9,30.1h-5.8c0.3-0.9,0.7-1.7,1.2-2.4l0.1-0.2c0.8-1.1,2.4-1.1,3.2,0l0.1,0.2C47.2,28.4,47.6,29.2,47.9,30.1z"/>
						</g>
					</g>
				</g>
			</g>
			<g>
				<g>
					<g>
						<g>
							<g>
								<path class="st2" d="M40.6,28v36.2h-6.9V28c0-0.6,0-1.2,0.1-1.8c0.2-1.3,0.6-2.5,1.1-3.7c0.1-0.3,0.3-0.6,0.5-0.9l0.1-0.2
									c0.8-1.3,2.4-1.3,3.2,0l0.1,0.2c0.2,0.3,0.3,0.6,0.5,0.9c0.6,1.1,0.9,2.4,1.1,3.7C40.6,26.8,40.6,27.4,40.6,28z"/>
							</g>
						</g>
					</g>
				</g>
				<g>
					<g>
						<g>
							<g>
								<g>
									<path class="st3" d="M35,22.5v41.7h-1.3V28c0-0.6,0-1.2,0.1-1.8C34,24.9,34.4,23.7,35,22.5z"/>
								</g>
							</g>
						</g>
					</g>
					<g>
						<g>
							<g>
								<g>
									<path class="st3" d="M40.6,28v36.2h-1.2V22.5c0.6,1.1,0.9,2.4,1.1,3.7C40.6,26.8,40.6,27.4,40.6,28z"/>
								</g>
							</g>
						</g>
					</g>
				</g>
			</g>
			<g>
				<g>
					<g>
						<g>
							<g>
								<path class="st2" d="M56.2,28v36.2h-6.9V28c0-0.6,0-1.2,0.1-1.8c0.2-1.3,0.6-2.5,1.1-3.7c0.1-0.3,0.3-0.6,0.5-0.9l0.1-0.2
									c0.8-1.3,2.4-1.3,3.2,0l0.1,0.2c0.2,0.3,0.3,0.6,0.5,0.9c0.6,1.1,0.9,2.4,1.1,3.7C56.2,26.8,56.2,27.4,56.2,28z"/>
							</g>
						</g>
					</g>
				</g>
				<g>
					<g>
						<g>
							<g>
								<g>
									<path class="st3" d="M50.6,22.5v41.7h-1.3V28c0-0.6,0-1.2,0.1-1.8C49.7,24.9,50,23.7,50.6,22.5z"/>
								</g>
							</g>
						</g>
					</g>
					<g>
						<g>
							<g>
								<g>
									<path class="st3" d="M56.2,28v36.2H55V22.5c0.6,1.1,0.9,2.4,1.1,3.7C56.2,26.8,56.2,27.4,56.2,28z"/>
								</g>
							</g>
						</g>
					</g>
				</g>
			</g>
			<g>
				<g>
					<g>
						<g>
							<path class="st0" d="M47.8,33.9h-5.6c0-1.6,1.3-2.8,2.8-2.8C46.5,31,47.8,32.3,47.8,33.9z"/>
						</g>
					</g>
				</g>
			</g>
			<g>
				<g>
					<g>
						<g>
							<g>
								<polygon class="st2" points="41.5,51.8 41.5,64.2 29.1,64.2 29.1,60.5 								"/>
							</g>
						</g>
					</g>
				</g>
				<g>
					<g>
						<g>
							<g>
								<polygon class="st1" points="40.7,60.1 40.7,53.6 30.2,60.9 30.2,62.9 41.5,62.9 41.5,64.2 29.1,64.2 29.1,60.5 41.5,51.8 
									41.5,60.9 								"/>
							</g>
						</g>
					</g>
				</g>
			</g>
			<g>
				<g>
					<g>
						<g>
							<g>
								<polygon class="st2" points="60.8,60.5 60.8,64.2 48.4,64.2 48.4,51.8 								"/>
							</g>
						</g>
					</g>
				</g>
				<g>
					<g>
						<g>
							<g>
								<polygon class="st1" points="60.8,60.5 60.8,64.2 48.4,64.2 48.4,62.9 59.8,62.9 59.8,60.9 49.3,53.6 49.3,60.1 48.4,60.9 
									48.4,51.8 								"/>
							</g>
						</g>
					</g>
				</g>
			</g>
			<g>
				<g>
					<g>
						<g>
							<rect x="39.3" y="68" width="4.4" height="1.3"/>
						</g>
					</g>
				</g>
			</g>
			<g>
				<g>
					<g>
						<g>
							<rect x="46.2" y="68" width="4.4" height="1.3"/>
						</g>
					</g>
				</g>
			</g>
			<g>
				<g>
					<g>
						<g>
							<g>
								<path class="st3" d="M45,62.1V68h-6.9v-5.8c0-1.1,0.2-2.1,0.5-3.1c0.3-0.9,0.7-1.7,1.2-2.4l0.1-0.2c0.5-0.7,1.4-1,2.2-0.7
									c0.4,0.1,0.7,0.4,1,0.7l0.1,0.2c0.5,0.7,0.9,1.6,1.2,2.4C44.8,60,45,61.1,45,62.1z"/>
							</g>
						</g>
					</g>
				</g>
				<g>
					<g>
						<g>
							<g>
								<path class="st2" d="M42.1,55.7V68h-4v-5.8c0-1.1,0.2-2.1,0.5-3.1c0.3-0.9,0.7-1.7,1.2-2.4l0.1-0.2
									C40.5,55.7,41.4,55.5,42.1,55.7z"/>
							</g>
						</g>
					</g>
				</g>
			</g>
			<g>
				<g>
					<g>
						<g>
							<g>
								<path class="st3" d="M51.9,62.1V68H45v-5.8c0-1.1,0.2-2.1,0.5-3.1c0.3-0.9,0.7-1.7,1.2-2.4l0.1-0.2c0.5-0.7,1.4-1,2.2-0.7
									c0.4,0.1,0.8,0.4,1,0.7l0.1,0.2c0.5,0.7,0.9,1.6,1.2,2.4C51.7,60,51.9,61.1,51.9,62.1z"/>
							</g>
						</g>
					</g>
				</g>
				<g>
					<g>
						<g>
							<g>
								<path class="st2" d="M49,55.7V68h-4v-5.8c0-1.1,0.2-2.1,0.5-3.1c0.3-0.9,0.7-1.7,1.2-2.4l0.1-0.2
									C47.3,55.7,48.2,55.5,49,55.7z"/>
							</g>
						</g>
					</g>
				</g>
			</g>
		</g>
	</g>
</g>
<g>
	<g>
		<g>
			<g>
				<g>
					<path class="st4" d="M69.2,56.9c0,0.4-0.3,0.8-0.8,0.8c-0.4,0-0.8-0.3-0.8-0.8s0.3-0.8,0.8-0.8C68.8,56.1,69.2,56.5,69.2,56.9z
						"/>
				</g>
			</g>
		</g>
	</g>
	<g>
		<g>
			<g>
				<g>
					<path class="st4" d="M47.9,79.7c0,0.4-0.3,0.8-0.8,0.8c-0.4,0-0.8-0.3-0.8-0.8s0.3-0.8,0.8-0.8C47.6,79,47.9,79.3,47.9,79.7z"
						/>
				</g>
			</g>
		</g>
	</g>
	<g>
		<g>
			<g>
				<g>
					<path class="st4" d="M21.2,45.4c0,1.1-0.9,1.9-1.9,1.9c-1.1,0-1.9-0.9-1.9-1.9s0.9-1.9,1.9-1.9C20.3,43.5,21.2,44.4,21.2,45.4z
						"/>
				</g>
			</g>
		</g>
	</g>
	<g>
		<g>
			<g>
				<g>
					<path class="st4" d="M66.2,42.6c0,0.3-0.2,0.5-0.5,0.5s-0.5-0.2-0.5-0.5s0.2-0.5,0.5-0.5C65.9,42.1,66.2,42.3,66.2,42.6z"/>
				</g>
			</g>
		</g>
	</g>
	<g>
		<g>
			<g>
				<g>
					<path class="st4" d="M61.9,77.3c0,0.3-0.2,0.5-0.5,0.5s-0.5-0.2-0.5-0.5s0.2-0.5,0.5-0.5S61.9,77,61.9,77.3z"/>
				</g>
			</g>
		</g>
	</g>
	<g>
		<g>
			<g>
				<g>
					<path class="st4" d="M33.6,13.9c0,0.3-0.2,0.5-0.5,0.5s-0.5-0.2-0.5-0.5s0.2-0.5,0.5-0.5C33.4,13.4,33.6,13.6,33.6,13.9z"/>
				</g>
			</g>
		</g>
	</g>
	<g>
		<g>
			<g>
				<g>
					<path class="st4" d="M73.2,37.6c0,1.1-0.9,2.1-2.1,2.1c-1.1,0-2.1-0.9-2.1-2.1c0-1.1,0.9-2.1,2.1-2.1
						C72.2,35.5,73.2,36.4,73.2,37.6z"/>
				</g>
			</g>
		</g>
	</g>
	<g>
		<g>
			<g>
				<g>
					<path class="st4" d="M25.9,27.2c0,0.4-0.3,0.7-0.7,0.7c-0.4,0-0.7-0.3-0.7-0.7c0-0.4,0.3-0.7,0.7-0.7
						C25.6,26.4,25.9,26.7,25.9,27.2z"/>
				</g>
			</g>
		</g>
	</g>
	<g>
		<g>
			<g>
				<g>
					<path class="st4" d="M17.4,54.6c0,0.2-0.2,0.4-0.4,0.4c-0.2,0-0.4-0.2-0.4-0.4s0.2-0.4,0.4-0.4C17.2,54.2,17.4,54.4,17.4,54.6z
						"/>
				</g>
			</g>
		</g>
	</g>
	<g>
		<g>
			<g>
				<g>
					<path class="st4" d="M28,39.1c0,0.9-0.7,1.7-1.7,1.7c-0.9,0-1.7-0.7-1.7-1.7c0-0.9,0.7-1.7,1.7-1.7C27.3,37.4,28,38.2,28,39.1z
						"/>
				</g>
			</g>
		</g>
	</g>
	<g>
		<g>
			<g>
				<g>
					<path class="st4" d="M25.1,67.9c0,0.4-0.3,0.7-0.7,0.7c-0.4,0-0.7-0.3-0.7-0.7c0-0.4,0.3-0.7,0.7-0.7
						C24.8,67.2,25.1,67.5,25.1,67.9z"/>
				</g>
			</g>
		</g>
	</g>
	<g>
		<g>
			<g>
				<g>
					<circle class="st4" cx="53.3" cy="10.9" r="0.8"/>
				</g>
			</g>
		</g>
	</g>
</g>
</svg>
