<?xml version="1.0" encoding="utf-8"?>
<!-- Generator: Adobe Illustrator 27.3.0, SVG Export Plug-In . SVG Version: 6.00 Build 0)  -->
<svg version="1.1" id="Layer_2" xmlns="http://www.w3.org/2000/svg" xmlns:xlink="http://www.w3.org/1999/xlink" x="0px" y="0px"
	 viewBox="0 0 90 90" style="enable-background:new 0 0 90 90;" xml:space="preserve">
<style type="text/css">
	.st0{fill:#FFFFFF;}
	.st1{fill:#231F20;}
	.st2{clip-path:url(#SVGID_00000015313234956948544050000012819972830683610530_);}
	.st3{fill:#A880FF;}
	.st4{fill:#5100FF;}
	.st5{fill:#E3A72F;}
	.st6{fill:#EBEBEB;}
	.st7{fill:#414042;}
	.st8{fill:#F0ECC9;}
	.st9{fill:#7DD0DE;}
	.st10{fill:#FFDE17;}
	.st11{opacity:0.4;}
	.st12{fill:#D1D3D4;}
	.st13{opacity:0.2;}
	.st14{fill:#F1F2F2;}
	.st15{fill:#79CFD3;}
	.st16{fill:#6BB7BF;}
	.st17{fill:#ED1C24;}
	.st18{fill:#DEE0E0;}
	.st19{fill:#EAC058;}
	.st20{fill:#503D2E;}
	.st21{opacity:5.000000e-02;}
	.st22{opacity:0.15;}
	.st23{opacity:0.1;}
	.st24{clip-path:url(#SVGID_00000086654327604441640760000004275965694339613857_);}
	.st25{fill:#BCF4F7;}
	.st26{fill:none;}
	.st27{fill:#D1654B;}
	.st28{fill:#E2B86F;}
	.st29{fill:#344951;}
	.st30{opacity:0.8;}
	.st31{clip-path:url(#SVGID_00000023989531789634829230000017802843056078028730_);}
	.st32{clip-path:url(#SVGID_00000157299108496690222940000004063639904810845844_);}
	.st33{fill:#603913;}
	.st34{opacity:7.000000e-02;}
	.st35{clip-path:url(#SVGID_00000031209928638066846810000000222956965639178421_);}
	.st36{fill:#F2D636;}
	.st37{clip-path:url(#SVGID_00000065771890322189254160000007771970237975870613_);}
	.st38{clip-path:url(#SVGID_00000121982063697142587660000002735768956738806687_);}
	.st39{fill:#B7B7B7;}
	.st40{fill:#F5F5F5;}
	.st41{clip-path:url(#SVGID_00000160175128692452580150000011135661810666659752_);}
	.st42{fill:#05605D;}
	.st43{fill:#057272;}
	.st44{clip-path:url(#SVGID_00000016761057912664426080000006728583853672427174_);}
	.st45{clip-path:url(#SVGID_00000062899780606751391870000016013171699434572169_);}
	.st46{fill:#6CB9C1;}
	.st47{fill:#74B98D;}
	.st48{fill:#FCC787;}
	.st49{fill:#FBB47C;}
	.st50{fill:#F9A271;}
	.st51{fill:#F88F66;}
	.st52{opacity:0.5;}
	.st53{clip-path:url(#SVGID_00000111154126341569840000000000130102444860985475_);}
</style>
<g>
	<g>
		<g>
			<g>
				<g>
					<ellipse transform="matrix(0.2298 -0.9732 0.9732 0.2298 -9.1351 78.4573)" cx="45" cy="45" rx="44" ry="44"/>
				</g>
			</g>
		</g>
	</g>
	<g>
		<g>
			<g>
				<g>
					<g>
						<path class="st39" d="M69.2,56.9c0,0.4-0.3,0.8-0.8,0.8c-0.4,0-0.8-0.3-0.8-0.8s0.3-0.8,0.8-0.8
							C68.8,56.1,69.2,56.5,69.2,56.9z"/>
					</g>
				</g>
			</g>
		</g>
		<g>
			<g>
				<g>
					<g>
						<path class="st39" d="M47.9,79.7c0,0.4-0.3,0.8-0.8,0.8c-0.4,0-0.8-0.3-0.8-0.8s0.3-0.8,0.8-0.8C47.6,79,47.9,79.3,47.9,79.7z
							"/>
					</g>
				</g>
			</g>
		</g>
		<g>
			<g>
				<g>
					<g>
						<path class="st39" d="M21.2,45.4c0,1.1-0.9,1.9-1.9,1.9c-1.1,0-1.9-0.9-1.9-1.9s0.9-1.9,1.9-1.9
							C20.3,43.5,21.2,44.4,21.2,45.4z"/>
					</g>
				</g>
			</g>
		</g>
		<g>
			<g>
				<g>
					<g>
						<path class="st39" d="M66.2,42.6c0,0.3-0.2,0.5-0.5,0.5c-0.3,0-0.5-0.2-0.5-0.5c0-0.3,0.2-0.5,0.5-0.5
							C65.9,42.1,66.2,42.3,66.2,42.6z"/>
					</g>
				</g>
			</g>
		</g>
		<g>
			<g>
				<g>
					<g>
						<path class="st39" d="M61.9,77.3c0,0.3-0.2,0.5-0.5,0.5c-0.3,0-0.5-0.2-0.5-0.5c0-0.3,0.2-0.5,0.5-0.5
							C61.7,76.8,61.9,77,61.9,77.3z"/>
					</g>
				</g>
			</g>
		</g>
		<g>
			<g>
				<g>
					<g>
						<path class="st39" d="M33.6,13.9c0,0.3-0.2,0.5-0.5,0.5c-0.3,0-0.5-0.2-0.5-0.5c0-0.3,0.2-0.5,0.5-0.5
							C33.4,13.4,33.6,13.6,33.6,13.9z"/>
					</g>
				</g>
			</g>
		</g>
		<g>
			<g>
				<g>
					<g>
						<path class="st39" d="M73.2,37.6c0,1.1-0.9,2.1-2.1,2.1c-1.1,0-2.1-0.9-2.1-2.1c0-1.1,0.9-2.1,2.1-2.1
							C72.2,35.5,73.2,36.4,73.2,37.6z"/>
					</g>
				</g>
			</g>
		</g>
		<g>
			<g>
				<g>
					<g>
						<path class="st39" d="M25.9,27.2c0,0.4-0.3,0.7-0.7,0.7c-0.4,0-0.7-0.3-0.7-0.7c0-0.4,0.3-0.7,0.7-0.7
							C25.6,26.4,25.9,26.7,25.9,27.2z"/>
					</g>
				</g>
			</g>
		</g>
		<g>
			<g>
				<g>
					<g>
						<path class="st39" d="M17.4,54.6c0,0.2-0.2,0.4-0.4,0.4c-0.2,0-0.4-0.2-0.4-0.4c0-0.2,0.2-0.4,0.4-0.4
							C17.2,54.2,17.4,54.4,17.4,54.6z"/>
					</g>
				</g>
			</g>
		</g>
		<g>
			<g>
				<g>
					<g>
						<path class="st39" d="M28,39.1c0,0.9-0.7,1.7-1.7,1.7c-0.9,0-1.7-0.7-1.7-1.7c0-0.9,0.7-1.7,1.7-1.7
							C27.3,37.4,28,38.2,28,39.1z"/>
					</g>
				</g>
			</g>
		</g>
		<g>
			<g>
				<g>
					<g>
						<path class="st39" d="M25.1,67.9c0,0.4-0.3,0.7-0.7,0.7c-0.4,0-0.7-0.3-0.7-0.7c0-0.4,0.3-0.7,0.7-0.7
							C24.8,67.2,25.1,67.5,25.1,67.9z"/>
					</g>
				</g>
			</g>
		</g>
		<g>
			<g>
				<g>
					<g>
						<circle class="st39" cx="53.3" cy="10.9" r="0.8"/>
					</g>
				</g>
			</g>
		</g>
	</g>
	<g>
		<g>
			<g>
				<g>
					<g>
						<rect x="35.1" y="42" class="st4" width="19.8" height="16.3"/>
					</g>
				</g>
			</g>
			<g>
				<g>
					<g>
						<polygon class="st3" points="54.9,58.3 49,69.3 41,69.3 35.1,58.3 						"/>
					</g>
				</g>
			</g>
			<g>
				<g>
					<g>
						<polygon class="st6" points="49,69.3 45,76.6 41,69.3 						"/>
					</g>
				</g>
			</g>
			<g>
				<g>
					<g>
						<g>
							<path class="st3" d="M41,55.5c-1.2,0-2.1-0.9-2.1-2.1v-6.3c0-1.2,0.9-2.1,2.1-2.1c1.2,0,2.1,0.9,2.1,2.1v6.3
								C43.2,54.6,42.2,55.5,41,55.5z"/>
						</g>
					</g>
				</g>
			</g>
			<g>
				<g>
					<g>
						<rect x="35.1" y="35.1" class="st0" width="19.8" height="6.9"/>
					</g>
				</g>
			</g>
			<g>
				<g>
					<g>
						<path class="st4" d="M54.9,30.9v4.2H35.1v-4.2c0-5.5,4.4-9.9,9.9-9.9C50.4,21,54.9,25.5,54.9,30.9z"/>
					</g>
				</g>
			</g>
		</g>
		<g>
			<g>
				<g>
					<path class="st6" d="M62.7,48.7H27.3c-2.1,0-3.7-1.7-3.7-3.7l0,0c0-2.1,1.7-3.7,3.7-3.7h35.4c2.1,0,3.7,1.7,3.7,3.7l0,0
						C66.4,47,64.7,48.7,62.7,48.7z"/>
				</g>
			</g>
		</g>
		<g>
			<g>
				<g>
					<path class="st4" d="M60.8,33.5v7.7H29.2v-7.7c0-5.8,3.1-10.9,7.8-13.6c1.5-0.9,3.1-1.5,4.9-1.9c1-0.2,2-0.3,3.1-0.3
						s2.1,0.1,3.1,0.3c1.8,0.3,3.4,1,4.9,1.9C57.7,22.6,60.8,27.7,60.8,33.5z"/>
				</g>
			</g>
		</g>
		<g>
			<g>
				<g>
					<path class="st3" d="M45,38.3L45,38.3c-1.7,0-3.1-1.4-3.1-3.1V18.5c0-1.7,1.4-3.1,3.1-3.1l0,0c1.7,0,3.1,1.4,3.1,3.1v16.7
						C48.1,36.9,46.7,38.3,45,38.3z"/>
				</g>
			</g>
		</g>
		<g>
			<g>
				<g>
					<g>
						<path class="st6" d="M41.9,18v13.4c0,1.4-1.1,2.5-2.5,2.5c-1.4,0-2.5-1.1-2.5-2.5V19.9C38.5,19,40.2,18.3,41.9,18z"/>
					</g>
				</g>
			</g>
			<g>
				<g>
					<g>
						<path class="st6" d="M53,19.9v11.5c0,1.4-1.1,2.5-2.5,2.5c-1.4,0-2.5-1.1-2.5-2.5V18C49.8,18.3,51.5,19,53,19.9z"/>
					</g>
				</g>
			</g>
		</g>
	</g>
</g>
</svg>
