<?xml version="1.0" encoding="utf-8"?>
<!-- Generator: Adobe Illustrator 26.2.1, SVG Export Plug-In . SVG Version: 6.00 Build 0)  -->
<svg version="1.1" id="Layer_1" xmlns="http://www.w3.org/2000/svg" xmlns:xlink="http://www.w3.org/1999/xlink" x="0px" y="0px"
	 viewBox="0 0 942 358.9" style="enable-background:new 0 0 942 358.9;" xml:space="preserve">
<style type="text/css">
	.st0{fill-rule:evenodd;clip-rule:evenodd;fill:#FFFFFF;}
	.st1{fill-rule:evenodd;clip-rule:evenodd;fill:#A880FF;}
	.st2{fill:#FFFFFF;}
	.st3{display:none;}
</style>
<g id="Layer_2_00000176027796872948835780000013131902066752505010_">
</g>
<g id="Layer_1_00000172401850431218140500000013206585764232027580_">
	<g>
		<g>
			<path class="st0" d="M293.2,63.5c64,64,64,167.8,0,231.8c-64.1,64.1-168,64.1-232,0c-64-64-64-167.8,0-231.8
				C125.2-0.6,229.1-0.6,293.2,63.5L293.2,63.5z M278.5,78.1c55.9,55.9,55.9,146.8,0,202.7c-28.9,28.9-67.2,42.9-105.1,41.8
				c-75.1,0-12.3-82.3-17.7-107.3c-2.1-7.2-7.1-12.2-14.3-14.4c-24.8-5.3-107.5,48.1-107.5-17.7c-1-37.9,12.9-76.2,42-105.1
				C131.8,22.1,222.6,22.1,278.5,78.1L278.5,78.1z"/>
			<path class="st1" d="M178.7,171.8c0,0.3-0.1,0.6-0.4,0.6c-0.3,0.1-0.6,0-0.6-0.3c-0.6-1.7-0.6-3.5,0-5.1c0.4-1.7,1.2-3.2,2.5-4.4
				c1.2-1.2,2.8-2.1,4.4-2.5c1.7-0.4,3.3-0.4,5,0c0.3,0,0.6,0.3,0.4,0.6c0,0.3-0.3,0.4-0.6,0.4c-1.5-0.4-3.2-0.4-4.6,0
				c-1.5,0.4-2.9,1.1-4,2.2c-1.1,1.2-1.8,2.5-2.2,4C178.2,168.8,178.2,170.3,178.7,171.8L178.7,171.8z"/>
			<path class="st1" d="M206.8,144.5c0.1,0.3-0.1,0.6-0.3,0.6c-0.3,0.1-0.6,0-0.7-0.3c-0.4-1.7-0.4-3.5,0-5.1c0.4-1.7,1.2-3,2.5-4.4
				c1.2-1.2,2.8-2.1,4.4-2.5c1.7-0.4,3.5-0.4,5.1,0c0.3,0.1,0.4,0.4,0.3,0.7c0,0.3-0.3,0.4-0.6,0.3c-1.5-0.4-3-0.4-4.6,0
				c-1.4,0.4-2.8,1.1-4,2.4c-1.1,1.1-1.8,2.5-2.2,3.9C206.4,141.5,206.4,143,206.8,144.5L206.8,144.5z"/>
			<path class="st1" d="M258.6,98c-46.8-2.4-77.1,28.3-99.2,50.3c-23.5,6-43.5,21.9-54.6,43.2c51-21.3,81.2,10.2,60.2,60.2
				c21.5-11.1,37.3-31,43.2-54.6C230.3,175.1,260.9,144.8,258.6,98z M195.8,178.2c-4.8,4.8-12.6,4.8-17.4,0
				c-4.8-4.8-4.8-12.6,0-17.4s12.6-4.8,17.4,0S200.7,173.3,195.8,178.2z M222.4,149.4c-4.2,4.2-10.9,4.2-15.2,0
				c-4.2-4.2-4.2-10.9,0-15.1c4.3-4.3,11.1-4.3,15.2,0C226.6,138.4,226.6,145.2,222.4,149.4z M216.1,129.4c-3.6-0.3-7.2,1-10,3.6
				c-2.4,2.5-3.6,5.5-3.6,8.7c-1,7.3-9,10.1-17,12.2c-15.2,4-34.6,0.4-55.8,12.7c10.1-7.2,21.6-12.3,33.9-15.4
				c14.4-17.3,34.3-33.9,56.4-42.8c6-2.4,9.6-4.2,11.8,4.3C233.9,121.7,224.1,130.3,216.1,129.4z"/>
		</g>
		<g>
			<path class="st2" d="M418.6,83.9h62.9c14.6,0,27.5,2.7,38.8,8.2c11.3,5.4,20,13.2,26.2,23.2s9.3,21.7,9.3,35.1
				s-3.1,25.1-9.3,35.2c-6.2,10-14.9,17.7-26.2,23.2c-11.3,5.4-24.2,8.2-38.8,8.2h-62.9V83.9z M479.9,186.8
				c11.4,0,20.5-3.2,27.5-9.7c6.9-6.5,10.4-15.4,10.4-26.8c0-11.4-3.5-20.3-10.4-26.8s-16.1-9.7-27.5-9.7h-23.8v73H479.9z"/>
			<path class="st2" d="M656.8,123.9c9,7.8,13.5,19.7,13.5,35.8v57.2h-33.6v-13.3c-5.2,10-15.3,15-30.4,15c-8,0-14.9-1.4-20.7-4.2
				s-10.2-6.6-13.2-11.3c-3-4.8-4.5-10.2-4.5-16.2c0-9.8,3.7-17.3,11.2-22.7s19-8.1,34.6-8.1h20.5c-0.6-10.9-7.9-16.3-21.8-16.3
				c-4.9,0-9.9,0.8-15,2.4c-5.1,1.6-9.4,3.8-12.9,6.6l-12.2-24.5c5.7-3.8,12.6-6.7,20.8-8.8s16.4-3.1,24.6-3.1
				C634.8,112.2,647.8,116.1,656.8,123.9z M627.4,192.7c3.2-2,5.4-5,6.8-8.9v-8.9h-15.6c-10.5,0-15.8,3.5-15.8,10.4
				c0,3.2,1.2,5.7,3.6,7.6c2.4,1.9,5.7,2.8,9.9,2.8C620.5,195.8,624.2,194.8,627.4,192.7z"/>
			<path class="st2" d="M705.1,215.6c-8.4-2-15.1-4.5-20.1-7.7l10.8-24.7c4.7,2.9,10.3,5.2,16.7,6.9s12.9,2.6,19.2,2.6
				c5.8,0,10-0.6,12.4-1.8c2.5-1.2,3.7-2.9,3.7-5.2s-1.5-3.9-4.5-4.8c-3-1-7.7-1.9-14.2-2.8c-8.2-1-15.2-2.3-21-4
				c-5.8-1.6-10.7-4.7-14.9-9.1c-4.2-4.4-6.3-10.6-6.3-18.6c0-6.6,2-12.4,5.9-17.6c3.9-5.1,9.7-9.2,17.2-12.2s16.6-4.5,27.1-4.5
				c7.5,0,14.9,0.8,22.2,2.3s13.5,3.7,18.4,6.5L767,145.4c-9.1-5.1-19-7.6-29.6-7.6c-5.7,0-9.9,0.7-12.5,2s-4,3.1-4,5.2
				c0,2.4,1.5,4.1,4.4,5s7.7,1.9,14.4,2.9c8.5,1.3,15.5,2.7,21.1,4.4c5.6,1.6,10.4,4.7,14.5,9c4.1,4.4,6.2,10.5,6.2,18.3
				c0,6.5-2,12.3-5.9,17.4c-3.9,5.1-9.7,9.2-17.4,12.1c-7.7,2.9-16.9,4.4-27.6,4.4C721.9,218.6,713.5,217.6,705.1,215.6z"/>
			<path class="st2" d="M895,123.6c7.8,7.6,11.7,19.1,11.7,34.4v58.9h-36.1v-53c0-14.1-5.6-21.1-16.9-21.1c-6.2,0-11.2,2-14.9,6.1
				s-5.6,10.1-5.6,18.2v49.8h-36.1v-141h36.1v47.5c3.9-3.7,8.5-6.5,13.9-8.4c5.3-1.9,11-2.8,17.1-2.8
				C876.9,112.2,887.2,116,895,123.6z"/>
			<path class="st2" d="M417.8,243.7h7.3v39.2h-7.3V243.7z"/>
			<path class="st2" d="M481.7,243.7v39.2h-6l-21.6-26.5v26.5h-7.2v-39.2h6l21.6,26.5v-26.5L481.7,243.7L481.7,243.7z"/>
			<path class="st2" d="M511.4,249.8h-13v-6.2h33.3v6.2h-13v33h-7.3L511.4,249.8L511.4,249.8z"/>
			<path class="st2" d="M577.8,276.8v6.1h-29.4v-39.2H577v6.1h-21.3V260h18.9v6h-18.9v10.8H577.8z"/>
			<path class="st2" d="M622.7,282.9l-8-11.5c-0.3,0-0.8,0.1-1.5,0.1h-8.8v11.4h-7.3v-39.2h16.1c3.4,0,6.4,0.6,8.9,1.7
				c2.5,1.1,4.5,2.7,5.8,4.8s2,4.6,2,7.4c0,2.9-0.7,5.5-2.2,7.6c-1.4,2.1-3.5,3.7-6.2,4.8l9,12.9H622.7z M620.1,251.8
				c-1.6-1.3-4.1-2-7.2-2h-8.5v15.6h8.5c3.2,0,5.6-0.7,7.2-2c1.6-1.4,2.5-3.3,2.5-5.8S621.7,253.2,620.1,251.8z"/>
			<path class="st2" d="M674.6,273.8H655l-3.9,9.1h-7.5l17.6-39.2h7.2l17.7,39.2h-7.6L674.6,273.8z M672.2,268.1l-7.4-17.1
				l-7.3,17.1H672.2z"/>
			<path class="st2" d="M709.2,280.8c-3.2-1.7-5.7-4.1-7.5-7.2s-2.7-6.5-2.7-10.4c0-3.8,0.9-7.3,2.7-10.4c1.8-3.1,4.3-5.5,7.5-7.2
				s6.8-2.6,10.7-2.6c3.2,0,6.1,0.6,8.8,1.7c2.7,1.1,4.9,2.7,6.7,4.9l-4.7,4.4c-2.8-3.1-6.3-4.6-10.5-4.6c-2.7,0-5.1,0.6-7.2,1.8
				s-3.8,2.8-5,4.9s-1.8,4.5-1.8,7.1c0,2.7,0.6,5,1.8,7.1s2.9,3.7,5,4.9s4.5,1.8,7.2,1.8c4.1,0,7.6-1.5,10.5-4.6l4.7,4.5
				c-1.8,2.1-4.1,3.8-6.7,4.9c-2.7,1.1-5.6,1.7-8.8,1.7C716,283.4,712.4,282.6,709.2,280.8z"/>
			<path class="st2" d="M761.2,249.8h-13v-6.2h33.3v6.2h-13v33h-7.3V249.8z"/>
			<path class="st2" d="M798.2,243.7h7.3v39.2h-7.3V243.7z"/>
			<path class="st2" d="M862.8,243.7l-17.1,39.2h-7.2l-17.1-39.2h7.9l13,30.2l13.2-30.2H862.8z"/>
			<path class="st2" d="M907.5,276.8v6.1h-29.4v-39.2h28.6v6.1h-21.3V260h18.9v6h-18.9v10.8H907.5z"/>
		</g>
	</g>
</g>
<g id="Favourites" class="st3">
</g>
</svg>
