<?xml version="1.0" encoding="utf-8"?>
<!-- Generator: Adobe Illustrator 27.3.0, SVG Export Plug-In . SVG Version: 6.00 Build 0)  -->
<svg version="1.1" id="Layer_1" xmlns="http://www.w3.org/2000/svg" xmlns:xlink="http://www.w3.org/1999/xlink" x="0px" y="0px"
	 viewBox="0 0 2540 812" style="enable-background:new 0 0 2540 812;" xml:space="preserve">
<style type="text/css">
	.st0{fill:#EBEBEB;}
	.st1{fill:#F7F7F7;}
</style>
<g id="Layer_2_00000014607334752808279490000011171979756845388455_">
	<path class="st0" d="M106.3,377.1c68.9-6.5,129.7-37.2,174.8-82.9c35.4,31.8,83.3,49.5,134.4,44.7c28.9-2.7,55.5-12.4,78.4-27.1
		c12.9,9.5,26.8,17.9,42,24.8c25.3,11.5,51.5,18,77.7,19.9c-8.3,62.4,24.6,125.5,84.9,152.8c20.1,9.1,41.1,13.1,61.8,13
		c9.1,61.9,48.4,118,109.6,145.7c95.7,43.4,208.5,1,251.8-94.7c43.4-95.7,1-208.5-94.7-251.8c-44.3-20.1-92.2-21.6-135.3-8.1
		c-13.1-27.8-34.9-51.6-63.8-66.9c4.8-7.8,9.1-16,13-24.6c25.9-57.2,26.5-119.4,6.6-174.1L0,46.9v319.8
		C33.5,376.6,69.4,380.6,106.3,377.1z"/>
	<path class="st0" d="M2222,165.3c0.2-3.4,0.5-6.7,0.5-10.1h-510.6c-55.6,40.4-91.9,105.9-91.9,179.9c0,38.8,10,75.3,27.5,107.1
		c-24.4,15.8-40.5,43.2-40.5,74.4c0,49,39.7,88.7,88.7,88.7c37.9,0,70.2-23.8,82.9-57.3c20.2,6,41.5,9.3,63.6,9.3
		c119.5,0,216.9-94.3,222-212.5c25.4-4.6,48.9-14.2,69.8-27.6c17.5,26,47.3,43.1,81.1,43.1c24.6,0,47.1-9.2,64.3-24.2
		c42.4,55.8,109.4,91.8,184.8,91.8c26.5,0,52-4.5,75.7-12.7V167.4h-303.4C2231.9,166.3,2227,165.7,2222,165.3z"/>
	<path class="st1" d="M2539.9-1.1v247.8c-23.7,8.2-49.2,12.7-75.7,12.7c-72.7,0-137.6-33.4-180.1-85.7
		c-17.7,24.3-46.4,40.1-78.8,40.1c-34.1,0-64-17.5-81.5-43.9c-24.8,43.5-66.1,76.3-115.3,90.2c1.4,10.1,2.2,20.5,2.2,31
		c0,122.7-99.5,222.2-222.2,222.2c-13.3,0-26.3-1.3-38.9-3.5c-5,42.4-39.7,75.7-82.8,78.2c-1.8,0.1-3.5,0.2-5.3,0.2
		c-5.4,0-10.7-0.6-15.9-1.5c-0.8,16-4,31.5-9,46c-19.6,56.2-68.4,98.7-128.3,109.2c-2.7,0.5-5.4,0.9-8.1,1.2
		c0.3,0.9,0.6,1.8,0.8,2.7c-56.8,29.5-121.3,46.2-189.7,46.2c-79,0-152.7-22.2-215.4-60.8c1.2-1.1,2.4-2.2,3.6-3.2
		c-3.6-0.2-7.2-0.6-10.7-1.3c-28.3-5.1-51.9-23.7-64-48.9c-17.5,5.2-36,8.1-55.2,8.1c-104.7,0-189.7-83.8-191.9-188
		c-15.6-1-31.3-4.7-46.4-11.5c-66.9-30.3-96.5-109.1-66.2-175.9c0.8-1.6,1.6-3.1,2.4-4.6c-21.4-2.9-42.7-8.9-63.3-18.3
		c-28.6-13-53.2-31.1-73.4-52.8c-22.5,13.9-48.2,23.2-76.3,25.8c-80.1,7.6-152.7-39.8-180.6-111.2c-10.3,7.9-22.9,13.2-36.8,14.5
		c-21,2-40.8-5.4-55.2-18.6c-28.6,32.6-69.1,54.8-115.7,59.2c-23,2.2-45.3-0.3-66.2-6.4V-1.1H2539.9z"/>
</g>
</svg>
